<?xml version="1.0" encoding="utf-8"?>
<!-- Generator: Adobe Illustrator 22.0.1, SVG Export Plug-In . SVG Version: 6.00 Build 0)  -->
<svg version="1.1" id="Layer_1" xmlns="http://www.w3.org/2000/svg" xmlns:xlink="http://www.w3.org/1999/xlink" x="0px" y="0px"
	 viewBox="0 0 611.5 266.2" style="enable-background:new 0 0 611.5 266.2;" xml:space="preserve">
<style type="text/css">
	.st0{fill:#F39B1D;}
	.st1{fill:#FFFFFF;}
	.st2{fill:#111175;}
	.st3{fill:#AEB3F4;}
</style>
<g>
	<path class="st0" d="M0,266.1L0,81.3C0,36.6,36.6,0,81.3,0h0c44.7,0,81.3,36.6,81.3,81.3l0,184.8c0,0.1-56.6,0-56.6,0V132.8
		l-49.1,0v133.3C25.7,266,0,266.4,0,266.1z"/>
	<path class="st1" d="M56.8,99.2V73.1c0-13.5,11-24.5,24.5-24.5h0c13.5,0,24.5,11,24.5,24.5v26.1H56.8z"/>
</g>
<path class="st2" d="M439.1,263.5l0.7-216.1c0-26.1,20.9-47.4,46.4-47.4h125.3v56.4l-115.2,0.5v53.3l115.2-0.4v51.2l-115.2-1.3
	v103.7H439.1z"/>
<g>
	<path class="st3" d="M351.2,1c-12.5-0.6-30.3-1-51.6,0.2c-18.2,1-29.6,1.6-43.5,4.3c-53.4,10.2-87,40.3-96.8,53.2
		c-5.3,7-9.2,13.9-11.9,20.4c-1.4,3.2-3.7,8.6-4.8,14.2c-3.4,17.3,4.6,40.1,21.7,49.4c8.3,4.5,16.5,4.6,20,4.7
		c77.1,0.5,140.2,0,140.2,0s15.1-0.5,16.7,6.3c0.5,1.5,1.2,4,0.8,7c-0.5,4.1-4.3,8.6-5,9.5c-7.7,9.1-20,16.2-21.1,16.9
		c-5,3.1-10.1,6.3-17.5,9.6c-4.3,2-10,4.5-17.9,6.6c-9.4,2.4-16.7,2.8-24.3,3.1c-6.6,0.3-11.3,0.1-20.5-0.2
		c-8.1-0.3-14.8-0.7-19.8-1.1c0,3.5,0,16.7,0,16.7c9.3,1.3,17.3,1.9,23.5,2.1c10.3,0.4,25.2-0.4,30.2-1.2c6.8-1,11.7-2.4,16.5-3.8
		c9.8-2.8,17.2-5.8,22.9-8.2c3.1-1.3,20.3-9.2,28-15c3.6-2.7,6.2-5.2,7.5-6.4c1.7-1.7,5.4-5.2,8.7-9.8c4.6-6.3,10.6-14.7,9.1-24.8
		c-0.3-1.6-1.1-6-4.3-10.2c-5.3-6.9-13.3-8.8-15.9-9.4c-3.7-1.1-6.9-1.7-9.1-2c0,0-140.2-1.4-140.2-1.4c-2.2-0.2-22.8-2.6-30-17.1
		c-4.7-9.4-1.4-19.1,1.7-27.9c2-5.8,6-15,15-24.8c22.2-24.2,47.4-35.7,78.4-40.3c50-7.5,94.8-4.6,93.1-4.6
		C351,11.6,351.1,6.3,351.2,1z"/>
	<path class="st3" d="M230.7,250.1c6.3,0.7,14.2,1.3,23.4,1.6c5.4,0.2,13.4,0.4,23.3-0.1c5.9-0.3,23.3-2.6,23.3-2.6
		s17.6-3.2,21.8-4.4c8.8-2.5,15-4.9,23.4-8.2c10.8-4.2,18.9-8.1,22.4-9.7c8.2-3.9,14.2-7.2,19.5-10.2c10-5.5,14.9-8.3,21.3-12.6
		c14-9.5,21.6-17.6,24.2-20.3c3.6-3.8,6.8-7.7,9.5-13c0.3-0.5,3.5-7,4.8-14.4c3-17.4-5.2-37.5-18.7-49.7c-2.5-2.2-8.8-7.8-18.8-11.1
		c-4.6-1.5-8.6-2.1-11.5-2.4c0,0-138.2-0.1-140.5-0.4c-3.4-0.5-5.2-0.7-6.3-1.8c-2-1.9-2-4.9-1.9-8.4c0-2.2,0.2-7,3.2-11.8
		c1-1.5,2.3-3.2,5.6-6c4.8-4,9.7-8.1,17.3-10.5c6-1.9,11.9-2.2,17.8-2.4c1.2,0,2-0.1,2.4-0.1c33.7-0.6,66.7-0.3,66.7-0.3
		c0-3.6,0-16.4,0-16.4h-12.4H306c-10.4-0.7-19,0.3-24.9,1.5c-5.1,1-11.4,2.3-18.9,6c-8,4-13.2,8.7-15.7,11c-2.4,2.2-5.5,5-8.6,9.5
		c-3.1,4.7-4.9,8.9-5.7,10.8c-1.5,3.7-3.2,8.1-3.6,14.1c-0.1,1.7-0.1,3.6,0.2,5.7c1.1,6.6,2.5,8.8,4.9,11.1c1.1,0.8,2.4,1.5,3.9,2.3
		c3.9,1.9,7.6,2.5,10.2,2.7c5.5,0.2,11,0.4,16.5,0.7c22.5-0.1,45.1-0.1,67.8,0c23,0.1,46,0.2,68.8,0.3c9.5,1.5,20.2,5.8,26.6,23.7
		c4.8,13.3-0.1,25.1-1.7,28.5c-3.7,7.8-9,12.7-21.4,21.2c-21.6,14.8-39.6,23.8-42.9,25.5c-13.1,6.3-27.1,13-47,18.4
		c-20.1,5.5-35.3,6.7-39.1,6.9c-4.6,0.3-12.8,0.9-23.4,0.3c-9-0.5-21.4-1.9-21.4-1.9C230.7,240.3,230.7,243,230.7,250.1z"/>
</g>
</svg>
