<?xml version="1.0" encoding="UTF-8" standalone="no"?>
<!-- Created with Inkscape (http://www.inkscape.org/) -->

<svg
   xmlns:dc="http://purl.org/dc/elements/1.1/"
   xmlns:cc="http://creativecommons.org/ns#"
   xmlns:rdf="http://www.w3.org/1999/02/22-rdf-syntax-ns#"
   xmlns:svg="http://www.w3.org/2000/svg"
   xmlns="http://www.w3.org/2000/svg"
   version="1.1"
   width="300"
   height="419.94861"
   id="svg51902">
  <defs
     id="defs51904" />
  <metadata
     id="metadata51907">
    <rdf:RDF>
      <cc:Work
         rdf:about="">
        <dc:format>image/svg+xml</dc:format>
        <dc:type
           rdf:resource="http://purl.org/dc/dcmitype/StillImage" />
        <dc:title></dc:title>
      </cc:Work>
    </rdf:RDF>
  </metadata>
  <g
     transform="translate(-225.00005,-322.38785)"
     id="layer1">
    <g
       transform="matrix(15.302898,0,0,15.302898,-6231.7237,-3561.8633)"
       id="g51361">
      <g
         transform="matrix(1.25,0,0,-1.25,421.97692,266.22847)"
         id="g32499">
        <path
           d="M 0,0 -0.039,0.189 0.873,0.377 0.912,0.186 0,0 Z"
           id="path32501"
           style="fill:#198cba;fill-opacity:1;fill-rule:nonzero;stroke:none" />
      </g>
      <g
         transform="matrix(1.25,0,0,-1.25,423.3808,266.94372)"
         id="g32503">
        <path
           d="m 0,0 0.055,-0.172 -0.891,-0.277 -0.057,0.185 0.522,0.561 -0.002,0.002 -0.635,-0.195 -0.053,0.171 0.889,0.278 0.061,-0.198 -0.51,-0.544 0.002,-0.002 L 0,0 Z"
           id="path32505"
           style="fill:#198cba;fill-opacity:1;fill-rule:nonzero;stroke:none" />
      </g>
      <g
         transform="matrix(1.25,0,0,-1.25,422.73867,267.9521)"
         id="g32507">
        <path
           d="m 0,0 0.08,-0.172 c 0.066,-0.144 0.233,-0.127 0.371,-0.062 0.25,0.115 0.217,0.244 0.182,0.318 L 0.555,0.254 0,0 Z M 0.621,0.494 0.793,0.121 C 0.924,-0.164 0.707,-0.336 0.547,-0.408 0.365,-0.492 0.07,-0.541 -0.057,-0.26 l -0.168,0.367 0.846,0.387 z"
           id="path32509"
           style="fill:#198cba;fill-opacity:1;fill-rule:nonzero;stroke:none" />
      </g>
      <g
         transform="matrix(1.25,0,0,-1.25,423.11217,269.12885)"
         id="g32511">
        <path
           d="M 0,0 -0.096,0.17 0.713,0.631 0.809,0.463 0,0 Z"
           id="path32513"
           style="fill:#198cba;fill-opacity:1;fill-rule:nonzero;stroke:none" />
      </g>
      <g
         transform="matrix(1.25,0,0,-1.25,423.7983,269.39247)"
         id="g32515">
        <path
           d="M 0,0 0.135,-0.195 0.373,0.109 0.371,0.111 0,0 Z M -0.355,-0.105 -0.473,0.063 0.48,0.32 0.609,0.137 0.031,-0.664 -0.09,-0.49 l 0.125,0.158 -0.197,0.283 -0.193,-0.056 z"
           id="path32517"
           style="fill:#198cba;fill-opacity:1;fill-rule:nonzero;stroke:none" />
      </g>
      <g
         transform="matrix(1.25,0,0,-1.25,425.28992,270.11022)"
         id="g32519">
        <path
           d="m 0,0 0.121,-0.137 -0.697,-0.619 -0.129,0.147 0.244,0.724 -0.002,0.002 -0.496,-0.439 -0.121,0.134 0.697,0.62 L -0.248,0.277 -0.486,-0.43 -0.484,-0.432 0,0 Z"
           id="path32521"
           style="fill:#198cba;fill-opacity:1;fill-rule:nonzero;stroke:none" />
      </g>
      <g
         transform="matrix(1.25,0,0,-1.25,426.20542,272.18297)"
         id="g32523">
        <path
           d="M 0,0 C 0.088,-0.059 0.246,-0.088 0.393,0.127 0.539,0.342 0.455,0.479 0.367,0.539 0.281,0.598 0.121,0.627 -0.025,0.412 -0.172,0.195 -0.086,0.059 0,0 M 0.459,0.676 C 0.563,0.605 0.801,0.379 0.555,0.018 0.309,-0.344 0.01,-0.205 -0.092,-0.137 c -0.101,0.071 -0.34,0.295 -0.094,0.658 0.247,0.362 0.543,0.223 0.645,0.155"
           id="path32525"
           style="fill:#198cba;fill-opacity:1;fill-rule:nonzero;stroke:none" />
      </g>
      <g
         transform="matrix(1.25,0,0,-1.25,427.14292,272.70547)"
         id="g32527">
        <path
           d="m 0,0 0.41,-0.211 -0.076,-0.15 -0.586,0.3 L 0.174,0.768 0.348,0.678 0,0 Z"
           id="path32529"
           style="fill:#198cba;fill-opacity:1;fill-rule:nonzero;stroke:none" />
      </g>
      <g
         transform="matrix(1.25,0,0,-1.25,428.11217,273.37935)"
         id="g32531">
        <path
           d="M 0,0 -0.18,0.072 -0.049,0.398 -0.133,1.057 0.08,0.971 0.109,0.523 0.432,0.83 0.635,0.748 0.129,0.322 0,0 Z"
           id="path32533"
           style="fill:#198cba;fill-opacity:1;fill-rule:nonzero;stroke:none" />
      </g>
      <g
         transform="matrix(1.25,0,0,-1.25,429.88467,273.89447)"
         id="g32535">
        <path
           d="m 0,0 -0.176,0.043 0.184,0.756 -0.004,0.002 -0.352,-0.717 -0.185,0.045 0.019,0.797 -0.004,0 L -0.701,0.17 -0.877,0.213 -0.658,1.117 -0.381,1.051 -0.391,0.299 -0.389,0.297 -0.055,0.971 0.221,0.904 0,0 Z"
           id="path32537"
           style="fill:#198cba;fill-opacity:1;fill-rule:nonzero;stroke:none" />
      </g>
      <g
         transform="matrix(1.25,0,0,-1.25,430.80017,273.37935)"
         id="g32539">
        <path
           d="M 0,0 C 0.145,-0.014 0.156,0.088 0.16,0.131 0.168,0.221 0.123,0.264 0.002,0.275 L -0.152,0.291 -0.178,0.018 0,0 Z m -0.229,-0.477 -0.193,0.02 0.094,0.926 0.422,-0.041 C 0.273,0.41 0.371,0.283 0.354,0.102 0.344,0.018 0.275,-0.189 0.027,-0.164 l -0.222,0.021 -0.034,-0.334 z"
           id="path32541"
           style="fill:#198cba;fill-opacity:1;fill-rule:nonzero;stroke:none" />
      </g>
      <g
         transform="matrix(1.25,0,0,-1.25,431.64005,274.04335)"
         id="g32543">
        <path
           d="M 0,0 -0.193,0.004 -0.178,0.936 0.016,0.932 0,0 Z"
           id="path32545"
           style="fill:#198cba;fill-opacity:1;fill-rule:nonzero;stroke:none" />
      </g>
      <g
         transform="matrix(1.25,0,0,-1.25,432.62392,273.21572)"
         id="g32547">
        <path
           d="m 0,0 c -0.02,0.053 -0.057,0.156 -0.217,0.145 -0.094,-0.006 -0.224,-0.079 -0.207,-0.34 0.012,-0.168 0.088,-0.313 0.252,-0.301 0.108,0.008 0.178,0.074 0.193,0.189 l 0.194,0.014 C 0.191,-0.498 0.068,-0.648 -0.164,-0.666 -0.41,-0.682 -0.6,-0.527 -0.623,-0.207 -0.646,0.117 -0.469,0.297 -0.23,0.314 0.049,0.332 0.174,0.148 0.195,0.014 L 0,0 Z"
           id="path32549"
           style="fill:#198cba;fill-opacity:1;fill-rule:nonzero;stroke:none" />
      </g>
      <g
         transform="matrix(1.25,0,0,-1.25,434.09605,273.29385)"
         id="g32551">
        <path
           d="M 0,0 0.229,0.063 0.018,0.387 0.016,0.385 0,0 Z m -0.018,-0.371 -0.197,-0.057 0.07,0.989 0.215,0.058 0.567,-0.808 -0.205,-0.059 -0.108,0.17 -0.332,-0.092 -0.01,-0.201 z"
           id="path32553"
           style="fill:#198cba;fill-opacity:1;fill-rule:nonzero;stroke:none" />
      </g>
      <g
         transform="matrix(1.25,0,0,-1.25,435.15317,273.04235)"
         id="g32555">
        <path
           d="M 0,0 C 0.021,-0.049 0.082,-0.129 0.24,-0.064 0.324,-0.027 0.41,0.031 0.373,0.123 0.344,0.191 0.271,0.182 0.172,0.164 L 0.072,0.148 C -0.08,0.121 -0.229,0.096 -0.307,0.285 -0.348,0.383 -0.365,0.572 -0.088,0.689 0.176,0.799 0.318,0.656 0.365,0.551 L 0.191,0.479 C 0.17,0.516 0.119,0.6 -0.039,0.535 -0.107,0.506 -0.178,0.447 -0.145,0.369 -0.117,0.303 -0.057,0.311 -0.018,0.318 L 0.215,0.354 C 0.344,0.373 0.473,0.371 0.535,0.217 0.645,-0.041 0.391,-0.174 0.314,-0.207 0.002,-0.338 -0.129,-0.18 -0.174,-0.072 L 0,0 Z"
           id="path32557"
           style="fill:#198cba;fill-opacity:1;fill-rule:nonzero;stroke:none" />
      </g>
      <g
         transform="matrix(1.25,0,0,-1.25,436.13717,272.59322)"
         id="g32559">
        <path
           d="M 0,0 C 0.027,-0.045 0.098,-0.119 0.246,-0.037 0.328,0.008 0.406,0.078 0.357,0.164 0.322,0.227 0.252,0.211 0.154,0.182 L 0.055,0.154 C -0.094,0.111 -0.236,0.07 -0.336,0.248 -0.387,0.34 -0.428,0.527 -0.164,0.674 0.086,0.813 0.244,0.688 0.301,0.588 L 0.139,0.496 C 0.113,0.531 0.051,0.609 -0.098,0.525 -0.162,0.49 -0.225,0.424 -0.184,0.35 -0.148,0.287 -0.09,0.303 -0.051,0.313 L 0.174,0.375 C 0.301,0.41 0.428,0.422 0.51,0.275 0.646,0.029 0.408,-0.131 0.338,-0.17 0.041,-0.336 -0.105,-0.193 -0.162,-0.092 L 0,0 Z"
           id="path32561"
           style="fill:#198cba;fill-opacity:1;fill-rule:nonzero;stroke:none" />
      </g>
      <g
         transform="matrix(1.25,0,0,-1.25,437.45055,271.9901)"
         id="g32563">
        <path
           d="M 0,0 C 0.084,0.063 0.166,0.203 0.012,0.412 -0.143,0.623 -0.301,0.588 -0.385,0.527 -0.469,0.465 -0.551,0.324 -0.396,0.113 -0.242,-0.096 -0.084,-0.061 0,0 m -0.482,0.66 c 0.099,0.072 0.392,0.221 0.65,-0.133 0.258,-0.351 0.027,-0.588 -0.07,-0.66 -0.1,-0.072 -0.393,-0.221 -0.653,0.133 -0.258,0.354 -0.027,0.586 0.073,0.66"
           id="path32565"
           style="fill:#198cba;fill-opacity:1;fill-rule:nonzero;stroke:none" />
      </g>
      <g
         transform="matrix(1.25,0,0,-1.25,438.28317,270.46422)"
         id="g32567">
        <path
           d="m 0,0 c -0.051,0.029 -0.145,0.084 -0.262,-0.029 -0.066,-0.065 -0.121,-0.205 0.063,-0.395 0.117,-0.119 0.269,-0.181 0.387,-0.066 0.078,0.074 0.089,0.172 0.025,0.269 l 0.141,0.135 c 0.113,-0.17 0.117,-0.365 -0.051,-0.527 -0.178,-0.174 -0.422,-0.178 -0.645,0.052 -0.228,0.235 -0.211,0.485 -0.037,0.653 0.199,0.193 0.414,0.135 0.518,0.043 L 0,0 Z"
           id="path32569"
           style="fill:#198cba;fill-opacity:1;fill-rule:nonzero;stroke:none" />
      </g>
      <g
         transform="matrix(1.25,0,0,-1.25,439.31092,270.48622)"
         id="g32571">
        <path
           d="M 0,0 -0.129,-0.148 -0.834,0.459 -0.707,0.605 0,0 Z"
           id="path32573"
           style="fill:#198cba;fill-opacity:1;fill-rule:nonzero;stroke:none" />
      </g>
      <g
         transform="matrix(1.25,0,0,-1.25,439.33042,269.75135)"
         id="g32575">
        <path
           d="m 0,0 0.137,0.193 -0.367,0.12 0,-0.002 L 0,0 Z M 0.219,-0.301 0.098,-0.469 -0.467,0.346 -0.336,0.527 0.613,0.252 0.49,0.08 0.299,0.143 0.1,-0.137 0.219,-0.301 Z"
           id="path32577"
           style="fill:#198cba;fill-opacity:1;fill-rule:nonzero;stroke:none" />
      </g>
      <g
         transform="matrix(1.25,0,0,-1.25,440.4608,268.78697)"
         id="g32579">
        <path
           d="M 0,0 -0.094,-0.17 -0.766,0.199 -0.9,-0.047 -1.045,0.033 -0.68,0.697 -0.535,0.617 -0.672,0.371 0,0 Z"
           id="path32581"
           style="fill:#198cba;fill-opacity:1;fill-rule:nonzero;stroke:none" />
      </g>
      <g
         transform="matrix(1.25,0,0,-1.25,440.80267,268.08385)"
         id="g32583">
        <path
           d="M 0,0 -0.08,-0.176 -0.93,0.207 -0.85,0.385 0,0 Z"
           id="path32585"
           style="fill:#198cba;fill-opacity:1;fill-rule:nonzero;stroke:none" />
      </g>
      <g
         transform="matrix(1.25,0,0,-1.25,440.93205,267.27097)"
         id="g32587">
        <path
           d="M 0,0 C 0.033,0.1 0.02,0.26 -0.227,0.346 -0.475,0.43 -0.584,0.311 -0.617,0.211 -0.65,0.113 -0.639,-0.049 -0.391,-0.133 -0.145,-0.217 -0.035,-0.098 0,0 m -0.773,0.266 c 0.041,0.117 0.195,0.406 0.609,0.263 0.414,-0.14 0.359,-0.465 0.318,-0.582 -0.039,-0.117 -0.195,-0.406 -0.609,-0.263 -0.412,0.14 -0.358,0.464 -0.318,0.582"
           id="path32589"
           style="fill:#198cba;fill-opacity:1;fill-rule:nonzero;stroke:none" />
      </g>
      <g
         transform="matrix(1.25,0,0,-1.25,440.34605,265.58147)"
         id="g32591">
        <path
           d="m 0,0 0.035,0.178 0.914,-0.182 -0.037,-0.191 -0.726,-0.243 0,-0.001 0.65,-0.129 -0.035,-0.18 -0.914,0.182 0.041,0.201 0.707,0.236 0.002,0.002 L 0,0 Z"
           id="path32593"
           style="fill:#198cba;fill-opacity:1;fill-rule:nonzero;stroke:none" />
      </g>
      <g
         transform="matrix(1.25,0,0,-1.25,441.11517,261.00385)"
         id="g32595">
        <path
           d="M 0,0 C -0.336,1.029 -0.879,1.965 -1.578,2.76"
           id="path32597"
           style="fill:none;stroke:#198cba;stroke-width:0.132;stroke-linecap:butt;stroke-linejoin:miter;stroke-miterlimit:4;stroke-opacity:1;stroke-dasharray:none" />
      </g>
      <g
         transform="matrix(1.25,0,0,-1.25,438.3173,256.7216)"
         id="g32599">
        <path
           d="m 0,0 c -1.404,1.264 -3.264,2.031 -5.303,2.031 -0.551,0 -1.09,-0.056 -1.611,-0.164"
           id="path32601"
           style="fill:none;stroke:#198cba;stroke-width:0.132;stroke-linecap:butt;stroke-linejoin:miter;stroke-miterlimit:4;stroke-opacity:1;stroke-dasharray:none" />
      </g>
      <g
         transform="matrix(1.25,0,0,-1.25,427.56042,255.0786)"
         id="g32603">
        <path
           d="M 0,0 C -1.732,-0.795 -3.129,-2.195 -3.92,-3.93"
           id="path32605"
           style="fill:none;stroke:#198cba;stroke-width:0.132;stroke-linecap:butt;stroke-linejoin:miter;stroke-miterlimit:4;stroke-opacity:1;stroke-dasharray:none" />
      </g>
      <g
         transform="matrix(1.25,0,0,-1.25,424.18155,259.71722)"
         id="g32607">
        <path
           d="M 0,0 -0.834,0.51"
           id="path32609"
           style="fill:none;stroke:#198cba;stroke-width:0.132;stroke-linecap:butt;stroke-linejoin:miter;stroke-miterlimit:4;stroke-opacity:1;stroke-dasharray:none" />
      </g>
      <g
         transform="matrix(1.25,0,0,-1.25,425.9003,257.6176)"
         id="g32611">
        <path
           d="M 0,0 -0.637,0.744"
           id="path32613"
           style="fill:none;stroke:#198cba;stroke-width:0.132;stroke-linecap:butt;stroke-linejoin:miter;stroke-miterlimit:4;stroke-opacity:1;stroke-dasharray:none" />
      </g>
      <g
         transform="matrix(1.25,0,0,-1.25,426.32755,257.25872)"
         id="g32615">
        <path
           d="M 0,0 -0.586,0.783"
           id="path32617"
           style="fill:none;stroke:#198cba;stroke-width:0.132;stroke-linecap:butt;stroke-linejoin:miter;stroke-miterlimit:4;stroke-opacity:1;stroke-dasharray:none" />
      </g>
      <g
         transform="matrix(1.25,0,0,-1.25,430.14342,255.54735)"
         id="g32619">
        <path
           d="M 0,0 -0.152,0.967"
           id="path32621"
           style="fill:none;stroke:#198cba;stroke-width:0.132;stroke-linecap:butt;stroke-linejoin:miter;stroke-miterlimit:4;stroke-opacity:1;stroke-dasharray:none" />
      </g>
      <g
         transform="matrix(1.25,0,0,-1.25,430.76842,255.46185)"
         id="g32623">
        <path
           d="M 0,0 -0.121,0.975"
           id="path32625"
           style="fill:none;stroke:#198cba;stroke-width:0.132;stroke-linecap:butt;stroke-linejoin:miter;stroke-miterlimit:4;stroke-opacity:1;stroke-dasharray:none" />
      </g>
      <g
         transform="matrix(1.25,0,0,-1.25,432.61417,255.4521)"
         id="g32627">
        <path
           d="M 0,0 0.086,0.971"
           id="path32629"
           style="fill:none;stroke:#198cba;stroke-width:0.132;stroke-linecap:butt;stroke-linejoin:miter;stroke-miterlimit:4;stroke-opacity:1;stroke-dasharray:none" />
      </g>
      <g
         transform="matrix(1.25,0,0,-1.25,433.20742,255.5326)"
         id="g32631">
        <path
           d="M 0,0 0.154,0.959"
           id="path32633"
           style="fill:none;stroke:#198cba;stroke-width:0.132;stroke-linecap:butt;stroke-linejoin:miter;stroke-miterlimit:4;stroke-opacity:1;stroke-dasharray:none" />
      </g>
      <g
         transform="matrix(1.25,0,0,-1.25,423.93005,260.1786)"
         id="g32635">
        <path
           d="M 0,0 -0.861,0.459"
           id="path32637"
           style="fill:none;stroke:#198cba;stroke-width:0.132;stroke-linecap:butt;stroke-linejoin:miter;stroke-miterlimit:4;stroke-opacity:1;stroke-dasharray:none" />
      </g>
      <g
         transform="matrix(1.25,0,0,-1.25,423.26605,259.80997)"
         id="g32639">
        <path
           d="m 0,0 -0.279,-0.68 c -0.084,-0.203 -0.116,-0.451 0.097,-0.496 0.188,-0.043 0.25,0.057 0.268,0.141 0.018,0.086 0.039,0.316 -0.254,0.385 -0.377,0.091 -0.457,0.173 -0.484,0.099 l -0.002,-0.004 c -0.065,-0.162 -0.106,-0.271 -0.16,-0.439"
           id="path32641"
           style="fill:none;stroke:#198cba;stroke-width:0.132;stroke-linecap:butt;stroke-linejoin:miter;stroke-miterlimit:4;stroke-opacity:1;stroke-dasharray:none" />
      </g>
      <g
         transform="matrix(1.25,0,0,-1.25,424.8773,258.61372)"
         id="g32643">
        <path
           d="m 0,0 c -0.102,-0.068 -0.525,-0.221 -0.779,-0.238 0.144,0.017 0.22,0.052 0.246,0.06 0.109,0.229 0,0.569 -0.332,0.594"
           id="path32645"
           style="fill:none;stroke:#198cba;stroke-width:0.132;stroke-linecap:butt;stroke-linejoin:miter;stroke-miterlimit:4;stroke-opacity:1;stroke-dasharray:none" />
      </g>
      <g
         transform="matrix(1.25,0,0,-1.25,425.41692,258.0741)"
         id="g32647">
        <path
           d="m 0,0 c -0.279,-0.262 -0.711,-0.008 -0.541,0.322 0.168,0.33 0.406,0.485 0.482,0.561"
           id="path32649"
           style="fill:none;stroke:#198cba;stroke-width:0.132;stroke-linecap:butt;stroke-linejoin:miter;stroke-miterlimit:4;stroke-opacity:1;stroke-dasharray:none" />
      </g>
      <g
         transform="matrix(1.25,0,0,-1.25,424.74067,257.02435)"
         id="g32651">
        <path
           d="M 0,0 C -0.111,0.111 -0.246,0.186 -0.152,0.34 -0.059,0.492 0.322,0.832 0.482,0.873 0.645,0.916 0.746,0.736 0.771,0.678"
           id="path32653"
           style="fill:none;stroke:#198cba;stroke-width:0.132;stroke-linecap:butt;stroke-linejoin:miter;stroke-miterlimit:4;stroke-opacity:1;stroke-dasharray:none" />
      </g>
      <g
         transform="matrix(1.25,0,0,-1.25,426.5058,255.65472)"
         id="g32655">
        <path
           d="m 0,0 c 0.17,-0.078 0.498,-0.484 0.012,-0.654 0.304,-0.159 0.554,-0.182 0.869,0.383 L 1.006,-0.475 0.881,-0.248 0.6,0.328"
           id="path32657"
           style="fill:none;stroke:#198cba;stroke-width:0.132;stroke-linecap:butt;stroke-linejoin:miter;stroke-miterlimit:4;stroke-opacity:1;stroke-dasharray:none" />
      </g>
      <g
         transform="matrix(1.25,0,0,-1.25,428.56392,254.72447)"
         id="g32659">
        <path
           d="M 0,0 C 0.18,0.076 0.586,0.211 0.662,0.033 0.738,-0.145 0.688,-0.297 0.17,-0.424 1.078,-0.213 0.924,-0.611 0.781,-0.729 0.637,-0.848 0.375,-0.934 0.053,-0.865"
           id="path32661"
           style="fill:none;stroke:#198cba;stroke-width:0.132;stroke-linecap:butt;stroke-linejoin:miter;stroke-miterlimit:4;stroke-opacity:1;stroke-dasharray:none" />
      </g>
      <g
         transform="matrix(1.25,0,0,-1.25,430.0263,254.85147)"
         id="g32663">
        <path
           d="M 0,0 -0.795,-0.271"
           id="path32665"
           style="fill:none;stroke:#198cba;stroke-width:0.132;stroke-linecap:butt;stroke-linejoin:miter;stroke-miterlimit:4;stroke-opacity:1;stroke-dasharray:none" />
      </g>
      <g
         transform="matrix(1.25,0,0,-1.25,431.6693,255.39347)"
         id="g32667">
        <path
           d="M 0,0 C -0.432,0.111 -0.508,0.434 -0.254,0.627 0,0.822 0.322,0.627 0.348,0.355 0.459,0.578 0.729,0.662 0.814,0.654"
           id="path32669"
           style="fill:none;stroke:#198cba;stroke-width:0.132;stroke-linecap:butt;stroke-linejoin:miter;stroke-miterlimit:4;stroke-opacity:1;stroke-dasharray:none" />
      </g>
      <g
         transform="matrix(1.25,0,0,-1.25,434.64542,254.62935)"
         id="g32671">
        <path
           d="m 0,0 -0.193,-0.627 c -0.061,-0.162 -0.366,-0.195 -0.442,-0.043 -0.076,0.152 0.043,0.381 0.315,0.322 0.269,-0.06 0.49,-0.152 0.49,-0.152"
           id="path32673"
           style="fill:none;stroke:#198cba;stroke-width:0.132;stroke-linecap:butt;stroke-linejoin:miter;stroke-miterlimit:4;stroke-opacity:1;stroke-dasharray:none" />
      </g>
      <g
         transform="matrix(1.25,0,0,-1.25,435.40955,254.91497)"
         id="g32675">
        <path
           d="m 0,0 c -0.119,-0.305 -0.262,-0.602 -0.127,-0.746 0.135,-0.145 0.416,-0.17 0.551,-0.145"
           id="path32677"
           style="fill:none;stroke:#198cba;stroke-width:0.132;stroke-linecap:butt;stroke-linejoin:miter;stroke-miterlimit:4;stroke-opacity:1;stroke-dasharray:none" />
      </g>
      <g
         transform="matrix(1.25,0,0,-1.25,436.31042,255.32997)"
         id="g32679">
        <path
           d="M 0,0 -0.449,-0.889"
           id="path32681"
           style="fill:none;stroke:#198cba;stroke-width:0.132;stroke-linecap:butt;stroke-linejoin:miter;stroke-miterlimit:4;stroke-opacity:1;stroke-dasharray:none" />
      </g>
      <g
         transform="matrix(1.25,0,0,-1.25,437.32855,257.41735)"
         id="g32683">
        <path
           d="M 0,0 C 0.313,-0.117 0.551,-0.084 0.602,0.111 0.652,0.307 0.457,0.578 0.066,0.645"
           id="path32685"
           style="fill:none;stroke:#198cba;stroke-width:0.132;stroke-linecap:butt;stroke-linejoin:miter;stroke-miterlimit:4;stroke-opacity:1;stroke-dasharray:none" />
      </g>
      <g
         transform="matrix(1.25,0,0,-1.25,437.02092,257.0976)"
         id="g32687">
        <path
           d="M 0,0 0.533,0.711"
           id="path32689"
           style="fill:none;stroke:#198cba;stroke-width:0.132;stroke-linecap:butt;stroke-linejoin:miter;stroke-miterlimit:4;stroke-opacity:1;stroke-dasharray:none" />
      </g>
      <g
         transform="matrix(1.25,0,0,-1.25,437.41155,256.55797)"
         id="g32691">
        <path
           d="m 0,0 c -0.117,0.254 -0.348,0.449 -0.533,0.465 -0.196,0.019 -0.516,-0.317 -0.254,-0.559 0.232,-0.215 0.338,-0.177 0.609,-0.168"
           id="path32693"
           style="fill:none;stroke:#198cba;stroke-width:0.132;stroke-linecap:butt;stroke-linejoin:miter;stroke-miterlimit:4;stroke-opacity:1;stroke-dasharray:none" />
      </g>
      <g
         transform="matrix(1.25,0,0,-1.25,440.09217,258.85785)"
         id="g32695">
        <path
           d="M 0,0 -0.771,-0.49"
           id="path32697"
           style="fill:none;stroke:#198cba;stroke-width:0.132;stroke-linecap:butt;stroke-linejoin:miter;stroke-miterlimit:4;stroke-opacity:1;stroke-dasharray:none" />
      </g>
      <g
         transform="matrix(1.25,0,0,-1.25,438.85442,259.03847)"
         id="g32699">
        <path
           d="M 0,0 C -0.086,0.246 -0.195,0.398 -0.18,0.883 -0.129,0.484 0.49,0.254 0.49,0.873"
           id="path32701"
           style="fill:none;stroke:#198cba;stroke-width:0.132;stroke-linecap:butt;stroke-linejoin:miter;stroke-miterlimit:4;stroke-opacity:1;stroke-dasharray:none" />
      </g>
      <g
         transform="matrix(1.25,0,0,-1.25,439.2353,258.42322)"
         id="g32703">
        <path
           d="M 0,0 0.363,-0.551"
           id="path32705"
           style="fill:none;stroke:#198cba;stroke-width:0.132;stroke-linecap:butt;stroke-linejoin:miter;stroke-miterlimit:4;stroke-opacity:1;stroke-dasharray:none" />
      </g>
      <g
         transform="matrix(1.25,0,0,-1.25,441.0028,260.7011)"
         id="g32707">
        <path
           d="M 0,0 -0.863,-0.33"
           id="path32709"
           style="fill:none;stroke:#198cba;stroke-width:0.132;stroke-linecap:butt;stroke-linejoin:miter;stroke-miterlimit:4;stroke-opacity:1;stroke-dasharray:none" />
      </g>
      <g
         transform="matrix(1.25,0,0,-1.25,440.36805,260.94522)"
         id="g32711">
        <path
           d="m 0,0 c -0.771,0.152 -0.873,1.271 -0.135,0.713 -0.101,0.424 0.127,0.449 0.272,0.33"
           id="path32713"
           style="fill:none;stroke:#198cba;stroke-width:0.132;stroke-linecap:butt;stroke-linejoin:miter;stroke-miterlimit:4;stroke-opacity:1;stroke-dasharray:none" />
      </g>
      <g
         transform="matrix(1.25,0,0,-1.25,429.8163,253.9311)"
         id="g32715">
        <path
           d="M 0,0 C 0.279,0.059 0.609,-0.025 0.754,-0.229"
           id="path32717"
           style="fill:none;stroke:#198cba;stroke-width:0.132;stroke-linecap:butt;stroke-linejoin:miter;stroke-miterlimit:4;stroke-opacity:1;stroke-dasharray:none" />
      </g>
      <g
         transform="matrix(1.25,0,0,-1.25,433.30017,254.30222)"
         id="g32719">
        <path
           d="M 0,0 C 0.043,0.238 0.086,0.305 0.23,0.297 0.373,0.289 1.035,0.213 1.408,0.086 1.781,-0.041 2.477,-0.363 2.578,-0.467 2.68,-0.568 2.568,-0.754 2.484,-0.848"
           id="path32721"
           style="fill:none;stroke:#198cba;stroke-width:0.132;stroke-linecap:butt;stroke-linejoin:miter;stroke-miterlimit:4;stroke-opacity:1;stroke-dasharray:none" />
      </g>
      <g
         transform="matrix(1.25,0,0,-1.25,440.3998,258.64297)"
         id="g32723">
        <path
           d="M 0,0 C 0.047,0 0.084,0.037 0.084,0.082 0.084,0.129 0.047,0.166 0,0.166 -0.047,0.166 -0.084,0.129 -0.084,0.082 -0.084,0.037 -0.047,0 0,0 Z"
           id="path32725"
           style="fill:none;stroke:#198cba;stroke-width:0.132;stroke-linecap:butt;stroke-linejoin:miter;stroke-miterlimit:4;stroke-opacity:1;stroke-dasharray:none" />
      </g>
      <g
         transform="matrix(1.25,0,0,-1.25,429.87492,260.18597)"
         id="g32727">
        <path
           d="M 0,0 -0.369,0.959 C -0.48,0.92 -0.68,0.959 -0.836,1.57 -0.988,2.168 -1.295,2.357 -1.623,2.412 l 1.297,-2.555 C -0.221,-0.09 -0.113,-0.041 0,0 Z"
           id="path32729"
           style="fill:none;stroke:#ee9b21;stroke-width:0.132;stroke-linecap:butt;stroke-linejoin:miter;stroke-miterlimit:4;stroke-opacity:1;stroke-dasharray:none" />
      </g>
      <g
         transform="matrix(1.25,0,0,-1.25,429.46717,260.36422)"
         id="g32731">
        <path
           d="M 0,0 -1.297,2.555 C -1.314,2.557 -1.332,2.559 -1.35,2.563 -1.426,2.189 -1.416,1.748 -1.129,1.426 -0.84,1.104 -0.594,0.697 -0.73,0.578 -0.75,0.563 -0.771,0.551 -0.797,0.547 l 0.475,-0.731 C -0.219,-0.117 -0.111,-0.055 0,0 Z"
           id="path32733"
           style="fill:none;stroke:#ee9b21;stroke-width:0.132;stroke-linecap:butt;stroke-linejoin:miter;stroke-miterlimit:4;stroke-opacity:1;stroke-dasharray:none" />
      </g>
      <g
         transform="matrix(1.25,0,0,-1.25,429.06442,260.59372)"
         id="g32735">
        <path
           d="M 0,0 -0.475,0.73 C -0.627,0.703 -0.869,0.889 -0.992,1.092 -1.137,1.33 -1.324,1.896 -1.941,1.932 -1.943,1.93 -1.943,1.928 -1.943,1.926 l 1.675,-2.115 C -0.182,-0.121 -0.092,-0.059 0,0 Z"
           id="path32737"
           style="fill:none;stroke:#ee9b21;stroke-width:0.132;stroke-linecap:butt;stroke-linejoin:miter;stroke-miterlimit:4;stroke-opacity:1;stroke-dasharray:none" />
      </g>
      <g
         transform="matrix(1.25,0,0,-1.25,430.6903,259.96135)"
         id="g32739">
        <path
           d="m 0,0 -0.168,0.873 c -0.08,-0.021 -0.277,0.059 -0.303,0.518 -0.025,0.445 -0.326,0.882 -0.582,0.988 l 0.725,-2.451 C -0.221,-0.043 -0.111,-0.02 0,0 Z"
           id="path32741"
           style="fill:none;stroke:#ee9b21;stroke-width:0.132;stroke-linecap:butt;stroke-linejoin:miter;stroke-miterlimit:4;stroke-opacity:1;stroke-dasharray:none" />
      </g>
      <g
         transform="matrix(1.25,0,0,-1.25,430.28017,260.05172)"
         id="g32743">
        <path
           d="m 0,0 -0.725,2.451 c -0.011,0.006 -0.025,0.01 -0.037,0.014 -0.101,-0.322 -0.187,-0.703 0,-1.018 0.188,-0.312 0.188,-0.551 0.076,-0.593 -0.002,0 -0.005,-0.002 -0.007,-0.002 l 0.369,-0.959 C -0.219,-0.066 -0.109,-0.031 0,0 Z"
           id="path32745"
           style="fill:none;stroke:#ee9b21;stroke-width:0.132;stroke-linecap:butt;stroke-linejoin:miter;stroke-miterlimit:4;stroke-opacity:1;stroke-dasharray:none" />
      </g>
      <g
         transform="matrix(1.25,0,0,-1.25,428.72992,260.83047)"
         id="g32747">
        <path
           d="M 0,0 -1.676,2.115 C -1.707,1.93 -1.703,1.305 -1.234,1.01 -0.76,0.715 -0.666,0.451 -0.811,0.34 -0.816,0.336 -0.822,0.334 -0.828,0.33 l 0.553,-0.566 C -0.188,-0.154 -0.096,-0.074 0,0 Z"
           id="path32749"
           style="fill:none;stroke:#ee9b21;stroke-width:0.132;stroke-linecap:butt;stroke-linejoin:miter;stroke-miterlimit:4;stroke-opacity:1;stroke-dasharray:none" />
      </g>
      <g
         transform="matrix(1.25,0,0,-1.25,431.02967,259.91497)"
         id="g32751">
        <path
           d="M 0,0 -0.215,2.889 C -0.346,2.676 -0.717,2.129 -0.506,1.676 -0.26,1.15 -0.318,0.881 -0.438,0.838 c -0.001,0 -0.001,-0.002 -0.001,-0.002 l 0.168,-0.873 C -0.184,-0.021 -0.092,-0.01 0,0 Z"
           id="path32753"
           style="fill:none;stroke:#ee9b21;stroke-width:0.132;stroke-linecap:butt;stroke-linejoin:miter;stroke-miterlimit:4;stroke-opacity:1;stroke-dasharray:none" />
      </g>
      <g
         transform="matrix(1.25,0,0,-1.25,431.45205,259.89547)"
         id="g32755">
        <path
           d="M 0,0 C 0.006,0 0.014,-0.002 0.02,-0.002 L 0.051,0.967 C -0.084,0.98 -0.188,1.115 -0.148,1.525 -0.105,1.957 0.047,2.637 -0.537,2.898 -0.543,2.891 -0.549,2.881 -0.553,2.873 l 0.215,-2.889 C -0.227,-0.006 -0.115,0 0,0 Z"
           id="path32757"
           style="fill:none;stroke:#ee9b21;stroke-width:0.132;stroke-linecap:butt;stroke-linejoin:miter;stroke-miterlimit:4;stroke-opacity:1;stroke-dasharray:none" />
      </g>
      <g
         transform="matrix(1.25,0,0,-1.25,427.2333,262.96185)"
         id="g32759">
        <path
           d="m 0,0 -2.342,0.756 c 0.156,-0.469 0.699,-0.584 0.916,-0.625 0.219,-0.043 0.78,-0.119 0.737,-0.322 l 0,-0.004 0.603,-0.123 C -0.063,-0.211 -0.033,-0.104 0,0 Z"
           id="path32761"
           style="fill:none;stroke:#ee9b21;stroke-width:0.132;stroke-linecap:butt;stroke-linejoin:miter;stroke-miterlimit:4;stroke-opacity:1;stroke-dasharray:none" />
      </g>
      <g
         transform="matrix(1.25,0,0,-1.25,428.38567,261.12585)"
         id="g32763">
        <path
           d="M 0,0 -0.553,0.566 C -0.703,0.479 -0.98,0.609 -1.119,0.789 -1.262,0.975 -1.547,1.539 -2.201,1.428 L -0.23,-0.244 C -0.158,-0.158 -0.08,-0.078 0,0 Z"
           id="path32765"
           style="fill:none;stroke:#ee9b21;stroke-width:0.132;stroke-linecap:butt;stroke-linejoin:miter;stroke-miterlimit:4;stroke-opacity:1;stroke-dasharray:none" />
      </g>
      <g
         transform="matrix(1.25,0,0,-1.25,427.12592,263.35985)"
         id="g32767">
        <path
           d="M 0,0 -0.604,0.123 C -0.648,-0.076 -0.951,-0.033 -1.137,0.041 -1.318,0.115 -1.625,0.229 -2.09,-0.154 l 2.029,-0.211 C -0.047,-0.242 -0.027,-0.119 0,0 Z"
           id="path32769"
           style="fill:none;stroke:#ee9b21;stroke-width:0.132;stroke-linecap:butt;stroke-linejoin:miter;stroke-miterlimit:4;stroke-opacity:1;stroke-dasharray:none" />
      </g>
      <g
         transform="matrix(1.25,0,0,-1.25,427.40667,262.5126)"
         id="g32771">
        <path
           d="m 0,0 -0.615,0.273 0,-0.002 C -0.709,0.109 -1.023,0.203 -1.227,0.34 -1.43,0.475 -1.914,0.779 -2.49,0.424 -2.486,0.414 -2.482,0.406 -2.48,0.396 l 2.341,-0.755 C -0.098,-0.236 -0.053,-0.117 0,0 Z"
           id="path32773"
           style="fill:none;stroke:#ee9b21;stroke-width:0.132;stroke-linecap:butt;stroke-linejoin:miter;stroke-miterlimit:4;stroke-opacity:1;stroke-dasharray:none" />
      </g>
      <g
         transform="matrix(1.25,0,0,-1.25,427.5873,262.15372)"
         id="g32775">
        <path
           d="M 0,0 -1.965,1.088 C -1.977,1.082 -1.986,1.076 -1.998,1.07 -1.871,0.713 -1.709,0.553 -1.447,0.451 -1.186,0.35 -0.674,0.146 -0.76,-0.014 l 0.615,-0.273 C -0.1,-0.189 -0.051,-0.094 0,0 Z"
           id="path32777"
           style="fill:none;stroke:#ee9b21;stroke-width:0.132;stroke-linecap:butt;stroke-linejoin:miter;stroke-miterlimit:4;stroke-opacity:1;stroke-dasharray:none" />
      </g>
      <g
         transform="matrix(1.25,0,0,-1.25,428.09755,261.4311)"
         id="g32779">
        <path
           d="m 0,0 -1.971,1.672 c -0.006,0 -0.013,0 -0.019,-0.002 C -1.949,1.398 -1.914,1.262 -1.889,1.186 -1.863,1.109 -1.678,0.898 -1.457,0.805 -1.236,0.711 -0.543,0.334 -0.721,0.092 -0.723,0.088 -0.727,0.084 -0.73,0.078 l 0.513,-0.355 C -0.148,-0.182 -0.076,-0.088 0,0 Z"
           id="path32781"
           style="fill:none;stroke:#ee9b21;stroke-width:0.132;stroke-linecap:butt;stroke-linejoin:miter;stroke-miterlimit:4;stroke-opacity:1;stroke-dasharray:none" />
      </g>
      <g
         transform="matrix(1.25,0,0,-1.25,427.82655,261.77772)"
         id="g32783">
        <path
           d="M 0,0 -0.514,0.355 C -0.682,0.162 -1.039,0.471 -1.105,0.539 -1.213,0.656 -1.629,1.072 -2.156,0.787 l 1.965,-1.088 C -0.133,-0.197 -0.068,-0.096 0,0 Z"
           id="path32785"
           style="fill:none;stroke:#ee9b21;stroke-width:0.132;stroke-linecap:butt;stroke-linejoin:miter;stroke-miterlimit:4;stroke-opacity:1;stroke-dasharray:none" />
      </g>
      <g
         transform="matrix(1.25,0,0,-1.25,432.68742,260.07122)"
         id="g32787">
        <path
           d="M 0,0 0.934,2.758 C 0.92,2.781 0.908,2.795 0.906,2.793 0.566,2.752 0.322,2.447 0.295,1.996 0.271,1.547 0.262,0.887 -0.027,0.895 -0.063,0.896 -0.094,0.902 -0.121,0.912 L -0.316,0.076 C -0.209,0.055 -0.104,0.031 0,0 Z"
           id="path32789"
           style="fill:none;stroke:#ee9b21;stroke-width:0.132;stroke-linecap:butt;stroke-linejoin:miter;stroke-miterlimit:4;stroke-opacity:1;stroke-dasharray:none" />
      </g>
      <g
         transform="matrix(1.25,0,0,-1.25,435.24355,262.03172)"
         id="g32791">
        <path
           d="M 0,0 2.359,1.27 2.371,1.311 C 2.107,1.234 1.973,1.25 1.811,1.25 1.65,1.25 1.318,1.176 1.166,0.955 1.02,0.742 0.645,0.672 0.543,0.766 L -0.186,0.275 C -0.119,0.186 -0.059,0.094 0,0 Z"
           id="path32793"
           style="fill:none;stroke:#ee9b21;stroke-width:0.132;stroke-linecap:butt;stroke-linejoin:miter;stroke-miterlimit:4;stroke-opacity:1;stroke-dasharray:none" />
      </g>
      <g
         transform="matrix(1.25,0,0,-1.25,435.45592,262.42472)"
         id="g32795">
        <path
           d="M 0,0 0.836,0.338 C 0.785,0.439 0.703,0.609 1.336,0.77 1.934,0.92 2.119,1.35 2.189,1.584 L -0.17,0.314 C -0.109,0.213 -0.051,0.107 0,0 Z"
           id="path32797"
           style="fill:none;stroke:#ee9b21;stroke-width:0.132;stroke-linecap:butt;stroke-linejoin:miter;stroke-miterlimit:4;stroke-opacity:1;stroke-dasharray:none" />
      </g>
      <g
         transform="matrix(1.25,0,0,-1.25,435.61955,262.81297)"
         id="g32799">
        <path
           d="m 0,0 2.219,0.646 c 0,0.008 0.002,0.018 0.004,0.028 C 2.111,0.682 1.936,0.748 1.816,0.783 1.697,0.816 1.418,0.885 1.188,0.682 0.959,0.477 0.756,0.545 0.705,0.646 l 0,0.002 -0.836,-0.337 C -0.082,0.209 -0.039,0.105 0,0 Z"
           id="path32801"
           style="fill:none;stroke:#ee9b21;stroke-width:0.132;stroke-linecap:butt;stroke-linejoin:miter;stroke-miterlimit:4;stroke-opacity:1;stroke-dasharray:none" />
      </g>
      <g
         transform="matrix(1.25,0,0,-1.25,431.8818,259.91735)"
         id="g32803">
        <path
           d="M 0,0 0.332,2.551 C 0.32,2.561 0.309,2.568 0.297,2.578 0,2.332 -0.109,2 -0.043,1.611 0.025,1.221 -0.119,0.975 -0.271,0.984 l -0.022,0 -0.031,-0.968 C -0.215,0.016 -0.105,0.01 0,0 Z"
           id="path32805"
           style="fill:none;stroke:#ee9b21;stroke-width:0.132;stroke-linecap:butt;stroke-linejoin:miter;stroke-miterlimit:4;stroke-opacity:1;stroke-dasharray:none" />
      </g>
      <g
         transform="matrix(1.25,0,0,-1.25,435.01167,261.68747)"
         id="g32807">
        <path
           d="M 0,0 0.729,0.49 C 0.725,0.494 0.719,0.498 0.717,0.502 0.631,0.611 0.75,0.781 1.09,0.924 1.43,1.068 1.549,1.451 1.658,1.773 1.635,1.771 1.613,1.771 1.592,1.771 L -0.215,0.262 C -0.139,0.178 -0.066,0.09 0,0 Z"
           id="path32809"
           style="fill:none;stroke:#ee9b21;stroke-width:0.132;stroke-linecap:butt;stroke-linejoin:miter;stroke-miterlimit:4;stroke-opacity:1;stroke-dasharray:none" />
      </g>
      <g
         transform="matrix(1.25,0,0,-1.25,435.74405,263.21572)"
         id="g32811">
        <path
           d="m 0,0 0.805,0.148 c 0.004,0.19 0.216,0.291 0.648,0.321 0.457,0.033 0.623,0.269 0.666,0.5 L -0.1,0.322 C -0.063,0.217 -0.029,0.109 0,0 Z"
           id="path32813"
           style="fill:none;stroke:#ee9b21;stroke-width:0.132;stroke-linecap:butt;stroke-linejoin:miter;stroke-miterlimit:4;stroke-opacity:1;stroke-dasharray:none" />
      </g>
      <g
         transform="matrix(1.25,0,0,-1.25,435.8783,264.12885)"
         id="g32815">
        <path
           d="m 0,0 0.797,-0.029 c -0.002,0.002 -0.002,0.006 -0.002,0.009 -0.008,0.227 0.6,0.143 0.822,0.118 0.576,-0.069 0.822,0.34 1.035,0.517 l -0.002,0 -2.689,-0.217 C -0.018,0.268 -0.006,0.135 0,0 Z"
           id="path32817"
           style="fill:none;stroke:#ee9b21;stroke-width:0.132;stroke-linecap:butt;stroke-linejoin:miter;stroke-miterlimit:4;stroke-opacity:1;stroke-dasharray:none" />
      </g>
      <g
         transform="matrix(1.25,0,0,-1.25,435.82955,263.63072)"
         id="g32819">
        <path
           d="M 0,0 2.689,0.217 C 2.172,0.59 1.791,0.631 1.461,0.428 1.131,0.225 0.783,0.191 0.74,0.42 0.736,0.441 0.736,0.461 0.736,0.48 L -0.068,0.332 C -0.041,0.223 -0.018,0.111 0,0 Z"
           id="path32821"
           style="fill:none;stroke:#ee9b21;stroke-width:0.132;stroke-linecap:butt;stroke-linejoin:miter;stroke-miterlimit:4;stroke-opacity:1;stroke-dasharray:none" />
      </g>
      <g
         transform="matrix(1.25,0,0,-1.25,434.74305,261.36022)"
         id="g32823">
        <path
           d="M 0,0 1.807,1.51 C 1.398,1.506 1.098,1.541 0.863,1.146 0.641,0.77 0.453,0.832 0.395,0.879 L -0.232,0.236 C -0.152,0.16 -0.074,0.082 0,0 Z"
           id="path32825"
           style="fill:none;stroke:#ee9b21;stroke-width:0.132;stroke-linecap:butt;stroke-linejoin:miter;stroke-miterlimit:4;stroke-opacity:1;stroke-dasharray:none" />
      </g>
      <g
         transform="matrix(1.25,0,0,-1.25,427.05017,263.81635)"
         id="g32827">
        <path
           d="M 0,0 -2.029,0.211 -2.076,0.17 c 0.228,-0.381 0.652,-0.33 0.787,-0.315 0.137,0.018 0.721,0.094 0.728,-0.177 l 0,-0.018 0.538,0.02 C -0.021,-0.213 -0.014,-0.105 0,0 Z"
           id="path32829"
           style="fill:none;stroke:#ee9b21;stroke-width:0.132;stroke-linecap:butt;stroke-linejoin:miter;stroke-miterlimit:4;stroke-opacity:1;stroke-dasharray:none" />
      </g>
      <g
         transform="matrix(1.25,0,0,-1.25,432.29192,259.97597)"
         id="g32831">
        <path
           d="M 0,0 0.195,0.836 C 0.008,0.908 0.029,1.184 0.104,1.42 0.188,1.686 0.42,2.277 0.004,2.598 L -0.328,0.047 C -0.217,0.037 -0.107,0.02 0,0 Z"
           id="path32833"
           style="fill:none;stroke:#ee9b21;stroke-width:0.132;stroke-linecap:butt;stroke-linejoin:miter;stroke-miterlimit:4;stroke-opacity:1;stroke-dasharray:none" />
      </g>
      <g
         transform="matrix(1.25,0,0,-1.25,433.0243,260.18347)"
         id="g32835">
        <path
           d="m 0,0 0.373,0.852 c -0.148,0.052 -0.26,0.324 0.221,0.871 0.42,0.476 0.162,0.988 0.07,1.125 L -0.27,0.09 C -0.178,0.063 -0.088,0.033 0,0 Z"
           id="path32837"
           style="fill:none;stroke:#ee9b21;stroke-width:0.132;stroke-linecap:butt;stroke-linejoin:miter;stroke-miterlimit:4;stroke-opacity:1;stroke-dasharray:none" />
      </g>
      <g
         transform="matrix(1.25,0,0,-1.25,434.15467,260.81585)"
         id="g32839">
        <path
           d="m 0,0 1.73,2.145 c 0,0.023 0.002,0.046 0.002,0.066 C 1.402,2.221 1.029,2.092 0.801,1.465 0.609,0.941 0.35,0.938 0.238,0.975 L -0.305,0.211 C -0.199,0.146 -0.098,0.074 0,0 Z"
           id="path32841"
           style="fill:none;stroke:#ee9b21;stroke-width:0.132;stroke-linecap:butt;stroke-linejoin:miter;stroke-miterlimit:4;stroke-opacity:1;stroke-dasharray:none" />
      </g>
      <g
         transform="matrix(1.25,0,0,-1.25,434.45255,261.06485)"
         id="g32843">
        <path
           d="M 0,0 0.627,0.643 C 0.621,0.646 0.617,0.65 0.613,0.656 0.58,0.697 0.453,0.953 1.012,1.342 1.52,1.695 1.488,2.105 1.492,2.344 L -0.238,0.199 C -0.156,0.137 -0.078,0.068 0,0 Z"
           id="path32845"
           style="fill:none;stroke:#ee9b21;stroke-width:0.132;stroke-linecap:butt;stroke-linejoin:miter;stroke-miterlimit:4;stroke-opacity:1;stroke-dasharray:none" />
      </g>
      <g
         transform="matrix(1.25,0,0,-1.25,433.40767,260.35197)"
         id="g32847">
        <path
           d="M 0,0 1.26,2.23 C 1.252,2.273 1.246,2.299 1.246,2.299 0.898,2.23 0.594,2.068 0.518,1.586 0.439,1.104 0.229,0.941 0.076,0.984 0.072,0.984 0.068,0.986 0.066,0.986 L -0.307,0.135 C -0.201,0.096 -0.1,0.051 0,0 Z"
           id="path32849"
           style="fill:none;stroke:#ee9b21;stroke-width:0.132;stroke-linecap:butt;stroke-linejoin:miter;stroke-miterlimit:4;stroke-opacity:1;stroke-dasharray:none" />
      </g>
      <g
         transform="matrix(1.25,0,0,-1.25,433.7738,260.55222)"
         id="g32851">
        <path
           d="M 0,0 0.543,0.764 C 0.52,0.771 0.504,0.781 0.494,0.787 0.443,0.83 0.326,0.99 0.725,1.381 1.047,1.697 0.996,2.211 0.967,2.391 L -0.293,0.16 C -0.191,0.111 -0.094,0.057 0,0 Z"
           id="path32853"
           style="fill:none;stroke:#ee9b21;stroke-width:0.132;stroke-linecap:butt;stroke-linejoin:miter;stroke-miterlimit:4;stroke-opacity:1;stroke-dasharray:none" />
      </g>
      <g
         transform="matrix(1.25,0,0,-1.25,430.30455,268.61122)"
         id="g32855">
        <path
           d="m 0,0 -0.594,-2.404 c 0.371,0.328 0.492,0.543 0.533,0.789 0.041,0.242 0.034,0.801 0.243,0.867 l 0.07,0.691 C 0.168,-0.041 0.082,-0.021 0,0 Z"
           id="path32857"
           style="fill:none;stroke:#ee9b21;stroke-width:0.132;stroke-linecap:butt;stroke-linejoin:miter;stroke-miterlimit:4;stroke-opacity:1;stroke-dasharray:none" />
      </g>
      <g
         transform="matrix(1.25,0,0,-1.25,433.95692,267.98385)"
         id="g32859">
        <path
           d="m 0,0 0.383,-0.576 c 0.008,0.01 0.015,0.019 0.025,0.029 0.127,0.109 0.356,-0.264 0.465,-0.5 C 0.98,-1.275 1.17,-1.51 1.691,-1.484 L 0.287,0.219 C 0.195,0.141 0.1,0.066 0,0 Z"
           id="path32861"
           style="fill:none;stroke:#ee9b21;stroke-width:0.132;stroke-linecap:butt;stroke-linejoin:miter;stroke-miterlimit:4;stroke-opacity:1;stroke-dasharray:none" />
      </g>
      <g
         transform="matrix(1.25,0,0,-1.25,434.3158,267.71035)"
         id="g32863">
        <path
           d="m 0,0 1.404,-1.703 c 0.024,0 0.047,0.002 0.073,0.004 0.017,0.627 -0.051,0.627 -0.381,0.924 -0.309,0.277 -0.405,0.421 -0.352,0.543 L 0.262,0.246 C 0.178,0.16 0.092,0.078 0,0 Z"
           id="path32865"
           style="fill:none;stroke:#ee9b21;stroke-width:0.132;stroke-linecap:butt;stroke-linejoin:miter;stroke-miterlimit:4;stroke-opacity:1;stroke-dasharray:none" />
      </g>
      <g
         transform="matrix(1.25,0,0,-1.25,433.66392,268.16935)"
         id="g32867">
        <path
           d="m 0,0 1.266,-2.258 c 0.156,0.403 0.146,0.69 -0.225,1.088 -0.359,0.383 -0.504,0.621 -0.424,0.742 L 0.234,0.148 C 0.158,0.096 0.08,0.047 0,0 Z"
           id="path32869"
           style="fill:none;stroke:#ee9b21;stroke-width:0.132;stroke-linecap:butt;stroke-linejoin:miter;stroke-miterlimit:4;stroke-opacity:1;stroke-dasharray:none" />
      </g>
      <g
         transform="matrix(1.25,0,0,-1.25,433.23917,268.38422)"
         id="g32871">
        <path
           d="m 0,0 0.281,-0.656 c 0.137,0.117 0.354,-0.166 0.405,-0.352 0.05,-0.185 0.076,-1.025 0.898,-1.135 0.008,0.02 0.016,0.038 0.021,0.057 L 0.34,0.172 C 0.23,0.109 0.117,0.051 0,0 Z"
           id="path32873"
           style="fill:none;stroke:#ee9b21;stroke-width:0.132;stroke-linecap:butt;stroke-linejoin:miter;stroke-miterlimit:4;stroke-opacity:1;stroke-dasharray:none" />
      </g>
      <g
         transform="matrix(1.25,0,0,-1.25,431.8988,268.73822)"
         id="g32875">
        <path
           d="M 0,0 0.408,-2.586 C 0.42,-2.592 0.432,-2.6 0.443,-2.605 c 0.239,0.439 0.34,0.55 0.102,1.246 -0.227,0.668 -0.174,0.779 -0.049,0.832 L 0.373,0.059 C 0.252,0.033 0.125,0.014 0,0 Z"
           id="path32877"
           style="fill:none;stroke:#ee9b21;stroke-width:0.132;stroke-linecap:butt;stroke-linejoin:miter;stroke-miterlimit:4;stroke-opacity:1;stroke-dasharray:none" />
      </g>
      <g
         transform="matrix(1.25,0,0,-1.25,432.36517,268.66497)"
         id="g32879">
        <path
           d="m 0,0 0.123,-0.586 c 0.006,0.004 0.01,0.004 0.016,0.006 0.136,0.051 0.228,-0.295 0.254,-0.559 0.025,-0.252 0.15,-0.636 0.664,-0.84 L 0.383,0.102 C 0.258,0.061 0.131,0.027 0,0 Z"
           id="path32881"
           style="fill:none;stroke:#ee9b21;stroke-width:0.132;stroke-linecap:butt;stroke-linejoin:miter;stroke-miterlimit:4;stroke-opacity:1;stroke-dasharray:none" />
      </g>
      <g
         transform="matrix(1.25,0,0,-1.25,432.84367,268.53797)"
         id="g32883">
        <path
           d="m 0,0 0.674,-2.08 c 0.021,-0.008 0.043,-0.018 0.064,-0.025 0.246,0.431 0.129,0.585 -0.05,0.966 -0.178,0.383 -0.229,0.475 -0.092,0.602 0,0.002 0.002,0.002 0.002,0.004 L 0.316,0.123 C 0.213,0.078 0.107,0.037 0,0 Z"
           id="path32885"
           style="fill:none;stroke:#ee9b21;stroke-width:0.132;stroke-linecap:butt;stroke-linejoin:miter;stroke-miterlimit:4;stroke-opacity:1;stroke-dasharray:none" />
      </g>
      <g
         transform="matrix(1.25,0,0,-1.25,434.64292,267.40272)"
         id="g32887">
        <path
           d="m 0,0 0.482,-0.479 c 0.004,0.008 0.008,0.018 0.012,0.026 0.076,0.127 0.578,0 0.703,-0.406 0.129,-0.409 0.475,-0.815 1.162,-0.62 -0.004,0.014 -0.007,0.028 -0.013,0.041 L 0.234,0.268 C 0.16,0.176 0.082,0.086 0,0 Z"
           id="path32889"
           style="fill:none;stroke:#ee9b21;stroke-width:0.132;stroke-linecap:butt;stroke-linejoin:miter;stroke-miterlimit:4;stroke-opacity:1;stroke-dasharray:none" />
      </g>
      <g
         transform="matrix(1.25,0,0,-1.25,434.93592,267.06822)"
         id="g32891">
        <path
           d="m 0,0 2.111,-1.705 c -0.16,0.521 -0.226,0.777 -0.664,0.992 -0.443,0.219 -0.631,0.369 -0.588,0.586 L 0.209,0.295 C 0.145,0.193 0.074,0.096 0,0 Z"
           id="path32893"
           style="fill:none;stroke:#ee9b21;stroke-width:0.132;stroke-linecap:butt;stroke-linejoin:miter;stroke-miterlimit:4;stroke-opacity:1;stroke-dasharray:none" />
      </g>
      <g
         transform="matrix(1.25,0,0,-1.25,435.82955,265.02485)"
         id="g32895">
        <path
           d="m 0,0 0.693,-0.141 c 0.084,0.248 0.481,0.063 0.641,0.006 0.17,-0.058 0.754,-0.238 1.033,0.186 C 2.346,0.066 2.324,0.078 2.305,0.092 L 0.035,0.328 C 0.027,0.217 0.016,0.107 0,0 Z"
           id="path32897"
           style="fill:none;stroke:#ee9b21;stroke-width:0.132;stroke-linecap:butt;stroke-linejoin:miter;stroke-miterlimit:4;stroke-opacity:1;stroke-dasharray:none" />
      </g>
      <g
         transform="matrix(1.25,0,0,-1.25,438.28067,264.54635)"
         id="g32899">
        <path
           d="M 0,0 C -0.119,0.102 -0.289,0.109 -0.533,0.092 -0.775,0.076 -1.109,0.084 -1.125,0.305 l -0.797,0.029 c 0.004,-0.053 0.004,-0.105 0.004,-0.16 0,-0.076 -0.002,-0.153 -0.008,-0.229 l 2.27,-0.236 C 0.111,-0.139 0.109,-0.094 0,0 Z"
           id="path32901"
           style="fill:none;stroke:#ee9b21;stroke-width:0.132;stroke-linecap:butt;stroke-linejoin:miter;stroke-miterlimit:4;stroke-opacity:1;stroke-dasharray:none" />
      </g>
      <g
         transform="matrix(1.25,0,0,-1.25,435.74155,265.44472)"
         id="g32903">
        <path
           d="m 0,0 2.443,-0.76 c 0.002,0 0.002,0.002 0.004,0.002 C 2.26,-0.342 1.93,-0.172 1.539,-0.113 1.15,-0.053 0.701,-0.162 0.752,0.15 0.754,0.168 0.758,0.182 0.764,0.195 L 0.07,0.336 C 0.053,0.223 0.029,0.109 0,0 Z"
           id="path32905"
           style="fill:none;stroke:#ee9b21;stroke-width:0.132;stroke-linecap:butt;stroke-linejoin:miter;stroke-miterlimit:4;stroke-opacity:1;stroke-dasharray:none" />
      </g>
      <g
         transform="matrix(1.25,0,0,-1.25,435.6073,265.87447)"
         id="g32907">
        <path
           d="m 0,0 0.77,-0.293 c 0.066,0.178 0.585,-0.021 0.818,-0.223 0.234,-0.201 0.838,-0.06 0.963,0.1 L 0.107,0.344 C 0.076,0.227 0.041,0.111 0,0 Z"
           id="path32909"
           style="fill:none;stroke:#ee9b21;stroke-width:0.132;stroke-linecap:butt;stroke-linejoin:miter;stroke-miterlimit:4;stroke-opacity:1;stroke-dasharray:none" />
      </g>
      <g
         transform="matrix(1.25,0,0,-1.25,435.19717,266.6996)"
         id="g32911">
        <path
           d="m 0,0 0.65,-0.422 c 0.002,0.002 0.002,0.006 0.002,0.008 0.051,0.221 0.383,-0.059 0.467,-0.145 0.084,-0.084 0.442,-0.49 1.026,-0.193 -0.012,0.023 -0.026,0.049 -0.04,0.072 L 0.176,0.313 C 0.121,0.205 0.063,0.102 0,0 Z"
           id="path32913"
           style="fill:none;stroke:#ee9b21;stroke-width:0.132;stroke-linecap:butt;stroke-linejoin:miter;stroke-miterlimit:4;stroke-opacity:1;stroke-dasharray:none" />
      </g>
      <g
         transform="matrix(1.25,0,0,-1.25,435.41692,266.30897)"
         id="g32915">
        <path
           d="M 0,0 1.93,-0.992 C 1.777,-0.688 1.676,-0.447 1.385,-0.346 1.07,-0.234 0.867,-0.15 0.918,0.045 c 0,0.004 0.002,0.006 0.004,0.01 L 0.152,0.348 C 0.107,0.229 0.057,0.111 0,0 Z"
           id="path32917"
           style="fill:none;stroke:#ee9b21;stroke-width:0.132;stroke-linecap:butt;stroke-linejoin:miter;stroke-miterlimit:4;stroke-opacity:1;stroke-dasharray:none" />
      </g>
      <g
         transform="matrix(1.25,0,0,-1.25,431.45205,268.76022)"
         id="g32919">
        <path
           d="M 0,0 C -0.096,0 -0.189,0.004 -0.283,0.012 L -0.41,-2.102 c 0.283,0.194 0.389,0.461 0.338,0.803 -0.047,0.322 0.031,0.559 0.152,0.604 L 0.031,0 0,0 Z"
           id="path32921"
           style="fill:none;stroke:#ee9b21;stroke-width:0.132;stroke-linecap:butt;stroke-linejoin:miter;stroke-miterlimit:4;stroke-opacity:1;stroke-dasharray:none" />
      </g>
      <g
         transform="matrix(1.25,0,0,-1.25,427.3358,265.97447)"
         id="g32923">
        <path
           d="M 0,0 -0.555,-0.246 C -0.564,-0.357 -0.738,-0.625 -1.094,-0.715 -1.5,-0.816 -1.838,-0.926 -1.99,-1.582 l 2.154,1.228 C 0.104,-0.238 0.049,-0.121 0,0 Z"
           id="path32925"
           style="fill:none;stroke:#ee9b21;stroke-width:0.132;stroke-linecap:butt;stroke-linejoin:miter;stroke-miterlimit:4;stroke-opacity:1;stroke-dasharray:none" />
      </g>
      <g
         transform="matrix(1.25,0,0,-1.25,427.54092,266.41647)"
         id="g32927">
        <path
           d="m 0,0 -2.154,-1.229 c 0,-10e-4 -0.002,-0.003 -0.002,-0.005 0.576,0.017 0.906,-0.028 1.144,0.271 0.305,0.381 0.678,0.518 0.772,0.399 0.006,-0.006 0.01,-0.016 0.013,-0.024 l 0.405,0.293 C 0.113,-0.199 0.055,-0.102 0,0 Z"
           id="path32929"
           style="fill:none;stroke:#ee9b21;stroke-width:0.132;stroke-linecap:butt;stroke-linejoin:miter;stroke-miterlimit:4;stroke-opacity:1;stroke-dasharray:none" />
      </g>
      <g
         transform="matrix(1.25,0,0,-1.25,427.76305,266.7851)"
         id="g32931">
        <path
           d="m 0,0 -0.404,-0.293 c 0.049,-0.133 -0.194,-0.418 -0.471,-0.57 -0.291,-0.157 -0.521,-0.33 -0.463,-0.772 l 1.545,1.354 C 0.133,-0.191 0.064,-0.098 0,0 Z"
           id="path32933"
           style="fill:none;stroke:#ee9b21;stroke-width:0.132;stroke-linecap:butt;stroke-linejoin:miter;stroke-miterlimit:4;stroke-opacity:1;stroke-dasharray:none" />
      </g>
      <g
         transform="matrix(1.25,0,0,-1.25,431.49117,268.76022)"
         id="g32935">
        <path
           d="m 0,0 0.049,-0.695 c 0.008,0.002 0.017,0.004 0.025,0.006 C 0.211,-0.674 0.32,-0.986 0.277,-1.291 0.236,-1.592 0.006,-2.146 0.734,-2.568 L 0.326,0.018 C 0.219,0.008 0.109,0.002 0,0 Z"
           id="path32937"
           style="fill:none;stroke:#ee9b21;stroke-width:0.132;stroke-linecap:butt;stroke-linejoin:miter;stroke-miterlimit:4;stroke-opacity:1;stroke-dasharray:none" />
      </g>
      <g
         transform="matrix(1.25,0,0,-1.25,427.19667,265.5741)"
         id="g32939">
        <path
           d="m 0,0 -1.936,-0.654 c 0.28,-0.166 0.618,-0.133 0.793,-0.051 0.178,0.086 0.59,0.348 0.696,0.18 0.004,-0.01 0.006,-0.024 0.004,-0.041 L 0.111,-0.32 C 0.07,-0.217 0.033,-0.109 0,0 Z"
           id="path32941"
           style="fill:none;stroke:#ee9b21;stroke-width:0.132;stroke-linecap:butt;stroke-linejoin:miter;stroke-miterlimit:4;stroke-opacity:1;stroke-dasharray:none" />
      </g>
      <g
         transform="matrix(1.25,0,0,-1.25,427.03317,264.69285)"
         id="g32943">
        <path
           d="m 0,0 -2.27,-0.311 c 0.393,-0.203 0.639,-0.226 1.157,-0.107 0.55,0.127 0.634,0.086 0.66,-0.008 0.004,-0.013 0.004,-0.027 0,-0.041 l 0.5,0.117 C 0.027,-0.236 0.012,-0.119 0,0 Z"
           id="path32945"
           style="fill:none;stroke:#ee9b21;stroke-width:0.132;stroke-linecap:butt;stroke-linejoin:miter;stroke-miterlimit:4;stroke-opacity:1;stroke-dasharray:none" />
      </g>
      <g
         transform="matrix(1.25,0,0,-1.25,428.02192,267.1366)"
         id="g32947">
        <path
           d="m 0,0 -1.545,-1.354 c 0.002,-0.009 0.002,-0.021 0.004,-0.033 0.391,0.026 0.691,0.043 0.814,0.287 0.178,0.358 0.432,0.526 0.577,0.424 0.004,-0.002 0.005,-0.004 0.009,-0.008 l 0.389,0.413 C 0.16,-0.186 0.078,-0.094 0,0 Z"
           id="path32949"
           style="fill:none;stroke:#ee9b21;stroke-width:0.132;stroke-linecap:butt;stroke-linejoin:miter;stroke-miterlimit:4;stroke-opacity:1;stroke-dasharray:none" />
      </g>
      <g
         transform="matrix(1.25,0,0,-1.25,427.09167,265.12985)"
         id="g32951">
        <path
           d="M 0,0 -0.5,-0.117 C -0.525,-0.205 -0.701,-0.314 -1.17,-0.373 -1.713,-0.441 -1.865,-0.863 -1.865,-1 c 0.006,-0.004 0.01,-0.006 0.013,-0.01 l 1.936,0.655 C 0.051,-0.238 0.021,-0.121 0,0 Z"
           id="path32953"
           style="fill:none;stroke:#ee9b21;stroke-width:0.132;stroke-linecap:butt;stroke-linejoin:miter;stroke-miterlimit:4;stroke-opacity:1;stroke-dasharray:none" />
      </g>
      <g
         transform="matrix(1.25,0,0,-1.25,430.61955,268.6821)"
         id="g32955">
        <path
           d="m 0,0 -0.07,-0.691 c 0.011,0.003 0.023,0.005 0.037,0.005 0.246,0.01 0.084,-0.464 0.06,-0.652 C 0,-1.523 -0.117,-1.922 0.238,-2.176 l 0.018,0.012 0.127,2.113 C 0.252,-0.041 0.125,-0.023 0,0 Z"
           id="path32957"
           style="fill:none;stroke:#ee9b21;stroke-width:0.132;stroke-linecap:butt;stroke-linejoin:miter;stroke-miterlimit:4;stroke-opacity:1;stroke-dasharray:none" />
      </g>
      <g
         transform="matrix(1.25,0,0,-1.25,429.8578,268.46472)"
         id="g32959">
        <path
           d="m 0,0 -0.195,-0.549 c 0.179,-0.064 0.047,-0.521 -0.119,-0.783 -0.17,-0.272 -0.399,-0.568 0.043,-1.223 0.011,0.012 0.023,0.022 0.035,0.034 l 0.593,2.404 C 0.236,-0.084 0.115,-0.045 0,0 Z"
           id="path32961"
           style="fill:none;stroke:#ee9b21;stroke-width:0.132;stroke-linecap:butt;stroke-linejoin:miter;stroke-miterlimit:4;stroke-opacity:1;stroke-dasharray:none" />
      </g>
      <g
         transform="matrix(1.25,0,0,-1.25,427.01842,264.32897)"
         id="g32963">
        <path
           d="M 0,0 C 0,0.031 0.002,0.061 0.002,0.09 L -0.535,0.07 c -0.016,-0.25 -0.543,-0.185 -0.61,-0.185 -0.068,0 -0.923,0.119 -1.195,-0.442 0.027,-0.015 0.055,-0.029 0.082,-0.045 l 2.27,0.311 C 0.004,-0.195 0,-0.098 0,0 Z"
           id="path32965"
           style="fill:none;stroke:#ee9b21;stroke-width:0.132;stroke-linecap:butt;stroke-linejoin:miter;stroke-miterlimit:4;stroke-opacity:1;stroke-dasharray:none" />
      </g>
      <g
         transform="matrix(1.25,0,0,-1.25,428.70542,267.80797)"
         id="g32967">
        <path
           d="m 0,0 -1.521,-2.004 c 0.644,0.238 0.818,0.44 0.943,0.748 0.127,0.313 0.271,0.568 0.441,0.516 0.018,-0.004 0.03,-0.014 0.039,-0.026 l 0.352,0.584 C 0.166,-0.125 0.082,-0.064 0,0 Z"
           id="path32969"
           style="fill:none;stroke:#ee9b21;stroke-width:0.132;stroke-linecap:butt;stroke-linejoin:miter;stroke-miterlimit:4;stroke-opacity:1;stroke-dasharray:none" />
      </g>
      <g
         transform="matrix(1.25,0,0,-1.25,428.33192,267.47597)"
         id="g32971">
        <path
           d="m 0,0 -0.389,-0.412 c 0.127,-0.109 0.014,-0.412 -0.349,-0.627 -0.373,-0.221 -0.711,-0.584 -0.526,-1.246 0.014,0.006 0.028,0.01 0.041,0.015 l 1.522,2.004 C 0.195,-0.182 0.094,-0.094 0,0 Z"
           id="path32973"
           style="fill:none;stroke:#ee9b21;stroke-width:0.132;stroke-linecap:butt;stroke-linejoin:miter;stroke-miterlimit:4;stroke-opacity:1;stroke-dasharray:none" />
      </g>
      <g
         transform="matrix(1.25,0,0,-1.25,429.42817,268.27185)"
         id="g32975">
        <path
           d="m 0,0 -0.852,-1.805 c 0.194,0.1 0.352,0.231 0.518,0.547 0.178,0.338 0.262,0.602 0.465,0.559 0.006,0 0.012,-0.002 0.017,-0.004 l 0.196,0.549 C 0.227,-0.109 0.111,-0.059 0,0 Z"
           id="path32977"
           style="fill:none;stroke:#ee9b21;stroke-width:0.132;stroke-linecap:butt;stroke-linejoin:miter;stroke-miterlimit:4;stroke-opacity:1;stroke-dasharray:none" />
      </g>
      <g
         transform="matrix(1.25,0,0,-1.25,429.0228,268.0351)"
         id="g32979">
        <path
           d="m 0,0 -0.352,-0.584 c 0.077,-0.098 -0.132,-0.398 -0.201,-0.551 -0.076,-0.17 -0.261,-0.439 -0.017,-0.881 0.015,0.006 0.029,0.014 0.043,0.022 l 0.851,1.805 C 0.213,-0.133 0.104,-0.068 0,0 Z"
           id="path32981"
           style="fill:none;stroke:#ee9b21;stroke-width:0.132;stroke-linecap:butt;stroke-linejoin:miter;stroke-miterlimit:4;stroke-opacity:1;stroke-dasharray:none" />
      </g>
      <g
         transform="matrix(1.25,0,0,-1.25,431.45692,268.76022)"
         id="g32983"
         style="fill:#ffffff">
        <path
           d="M 0,0 C 1.955,0 3.541,1.584 3.541,3.539 3.541,5.496 1.955,7.08 0,7.08 -1.955,7.08 -3.539,5.496 -3.539,3.539 -3.539,1.584 -1.955,0 0,0 Z"
           id="path32985"
           style="fill:#ffffff;stroke:#ec9722;stroke-width:0.26300001;stroke-linecap:butt;stroke-linejoin:miter;stroke-miterlimit:4;stroke-opacity:1;stroke-dasharray:none" />
      </g>
      <g
         transform="matrix(1.25,0,0,-1.25,431.45692,260.33735)"
         id="g32987">
        <path
           d="m 0,0 c -1.436,0 -2.65,-0.945 -3.055,-2.25 l 6.11,0 C 2.65,-0.945 1.438,0 0,0"
           id="path32989"
           style="fill:#f7941e;fill-opacity:1;fill-rule:nonzero;stroke:none" />
      </g>
      <g
         transform="matrix(1.25,0,0,-1.25,431.45692,268.33297)"
         id="g32991">
        <path
           d="m 0,0 c 1.41,0 2.609,0.914 3.033,2.182 l -6.066,0 C -2.607,0.914 -1.41,0 0,0"
           id="path32993"
           style="fill:#00a651;fill-opacity:1;fill-rule:nonzero;stroke:none" />
      </g>
      <g
         transform="matrix(1.25,0,0,-1.25,426.96967,279.2216)"
         id="g32995">
        <path
           d="m 0,0 c -0.029,0 -0.055,-0.002 -0.082,-0.002 -0.984,0 -1.783,0.799 -1.783,1.783 0,0.983 0.799,1.782 1.783,1.782 0.984,0 1.781,-0.799 1.781,-1.782 0,-0.797 -0.521,-1.47 -1.242,-1.699 0,0.025 -0.008,0.25 0.027,0.322 0.541,0.223 0.92,0.756 0.92,1.377 0,0.821 -0.666,1.487 -1.486,1.487 -0.822,0 -1.488,-0.666 -1.488,-1.487 0,-0.822 0.666,-1.488 1.488,-1.488 0.025,0 0.053,0 0.078,0.002 C -0.016,0.205 -0.018,0.061 0,0"
           id="path32997"
           style="fill:#0081c8;fill-opacity:1;fill-rule:nonzero;stroke:none" />
      </g>
      <g
         transform="matrix(1.25,0,0,-1.25,432.37492,279.1191)"
         id="g32999">
        <path
           d="m 0,0 c 0.719,0.229 1.242,0.902 1.242,1.699 0,0.983 -0.799,1.781 -1.783,1.781 -0.91,0 -1.66,-0.683 -1.768,-1.564 0.061,0.002 0.262,-0.041 0.291,-0.049 0.082,0.742 0.713,1.319 1.477,1.319 0.822,0 1.488,-0.666 1.488,-1.487 C 0.947,1.076 0.564,0.543 0.021,0.32 0.01,0.248 -0.008,0.162 0,0"
           id="path33001"
           style="fill:#231f20;fill-opacity:1;fill-rule:nonzero;stroke:none" />
      </g>
      <g
         transform="matrix(1.25,0,0,-1.25,431.80117,279.2216)"
         id="g33003">
        <path
           d="m 0,0 c -0.027,0 -0.055,-0.002 -0.082,-0.002 -0.898,0 -1.641,0.666 -1.764,1.531 0.055,-0.002 0.207,-0.029 0.313,-0.074 0.148,-0.664 0.742,-1.162 1.451,-1.162 0.027,0 0.055,0 0.08,0.002 C -0.004,0.24 -0.016,0.158 0,0"
           id="path33005"
           style="fill:#231f20;fill-opacity:1;fill-rule:nonzero;stroke:none" />
      </g>
      <g
         transform="matrix(1.25,0,0,-1.25,434.71867,277.40272)"
         id="g33007">
        <path
           d="m 0,0 c 0.148,-0.664 0.742,-1.162 1.451,-1.162 0.822,0 1.488,0.666 1.488,1.488 0,0.82 -0.666,1.487 -1.488,1.487 -0.765,0 -1.394,-0.579 -1.478,-1.321 -0.051,0.02 -0.225,0.049 -0.289,0.051 0.105,0.881 0.857,1.564 1.767,1.564 0.985,0 1.783,-0.798 1.783,-1.781 0,-0.984 -0.798,-1.783 -1.783,-1.783 -0.898,0 -1.642,0.668 -1.764,1.533 C -0.256,0.072 -0.105,0.043 0,0"
           id="path33009"
           style="fill:#ee334f;fill-opacity:1;fill-rule:nonzero;stroke:none" />
      </g>
      <g
         transform="matrix(1.25,0,0,-1.25,431.48867,278.72847)"
         id="g33011">
        <path
           d="m 0,0 c -0.121,0.867 -0.865,1.533 -1.764,1.533 -0.027,0 -0.052,-0.002 -0.078,-0.002 0.004,-0.066 0.008,-0.222 -0.004,-0.295 0.028,0.002 0.053,0.002 0.082,0.002 0.709,0 1.303,-0.496 1.451,-1.16 C -0.24,0.043 -0.057,0 0,0"
           id="path33013"
           style="fill:#fcb131;fill-opacity:1;fill-rule:nonzero;stroke:none" />
      </g>
      <g
         transform="matrix(1.25,0,0,-1.25,431.49355,279.30947)"
         id="g33015">
        <path
           d="m 0,0 c -0.105,-0.883 -0.857,-1.566 -1.768,-1.566 -0.984,0 -1.783,0.796 -1.783,1.781 0,0.797 0.524,1.471 1.244,1.701 C -2.303,1.842 -2.309,1.715 -2.332,1.594 -2.873,1.371 -3.256,0.838 -3.256,0.215 c 0,-0.82 0.666,-1.486 1.488,-1.486 0.764,0 1.393,0.576 1.479,1.318 C -0.215,0.023 -0.066,0.002 0,0"
           id="path33017"
           style="fill:#fcb131;fill-opacity:1;fill-rule:nonzero;stroke:none" />
      </g>
      <g
         transform="matrix(1.25,0,0,-1.25,436.32755,279.30947)"
         id="g33019">
        <path
           d="m 0,0 c -0.107,-0.883 -0.857,-1.566 -1.768,-1.566 -0.986,0 -1.783,0.796 -1.783,1.781 0,0.797 0.524,1.471 1.242,1.699 0.01,-0.08 -0.004,-0.271 -0.021,-0.32 -0.541,-0.223 -0.926,-0.756 -0.926,-1.379 0,-0.82 0.666,-1.486 1.488,-1.486 0.764,0 1.393,0.576 1.477,1.318 C -0.25,0.033 -0.098,0.002 0,0"
           id="path33021"
           style="fill:#00a651;fill-opacity:1;fill-rule:nonzero;stroke:none" />
      </g>
      <g
         transform="matrix(1.25,0,0,-1.25,434.01792,277.18297)"
         id="g33023">
        <path
           d="m 0,0 c 0.025,0.002 0.053,0.002 0.08,0.002 0.709,0 1.303,-0.496 1.451,-1.162 C 1.594,-1.188 1.75,-1.227 1.844,-1.236 1.723,-0.369 0.979,0.297 0.08,0.297 0.051,0.297 0.025,0.295 0,0.295 0.008,0.223 0.008,0.076 0,0"
           id="path33025"
           style="fill:#00a651;fill-opacity:1;fill-rule:nonzero;stroke:none" />
      </g>
    </g>
  </g>
</svg>
