<?xml version="1.0" encoding="utf-8"?>
<!-- Generator: Adobe Illustrator 22.0.1, SVG Export Plug-In . SVG Version: 6.00 Build 0)  -->
<svg version="1.1" id="Layer_1_xA0_Image_1_" xmlns="http://www.w3.org/2000/svg" xmlns:xlink="http://www.w3.org/1999/xlink"
	 x="0px" y="0px" viewBox="0 0 589.6 642.9" style="enable-background:new 0 0 589.6 642.9;" xml:space="preserve">
<style type="text/css">
	.st0{fill:#805B92;}
	.st1{fill:#CBD6CE;}
	.st2{fill:#613197;}
</style>
<path class="st0" d="M287.6,0.2c3.2,0,6.4,0,9.6-0.1c0.1,13.4,0.2,26.8,0.3,40.2c1,0.1,2.1,0.1,3.1,0.2c13.2-13.5,26.5-27,39.7-40.5
	c2.2,2.2,4.3,4.4,6.5,6.6c-16.3,16.2-32.6,32.5-48.8,48.7c0.3,38.1,0.6,76.2,0.9,114.2c21.4-14.3,42.7-28.7,64.1-43
	c0.3,22.2,0.6,44.3,0.9,66.5c3.2,0,6.4,0,9.6-0.1c26.6-24.5,53.3-49,79.9-73.6c-0.3-24-0.5-47.9-0.8-71.9c3.7,0,7.4,0.1,11,0.1
	c0.1,17.8,0.3,35.6,0.4,53.4c2.5,0,5,0,7.5-0.1c7.9-7.8,15.9-15.7,23.8-23.5c2.5,2.4,5,4.8,7.6,7.2c-8.6,8.1-17.2,16.3-25.9,24.4
	c0,2.1,0,4.2,0,6.3c19.6-0.1,39.2-0.3,58.8-0.4c0,3.1,0,6.3,0.1,9.4c-24.9,0.3-49.7,0.5-74.6,0.8c-27.3,25.2-54.7,50.3-82,75.5
	c0,2.5,0,5,0.1,7.5c21.3-0.1,42.5-0.2,63.8-0.3c-13.8,21.2-27.6,42.5-41.4,63.7c43.8-0.1,87.7-0.3,131.5-0.4
	c16.4-16.7,32.9-33.4,49.3-50c1.9,2,3.8,4,5.7,6c-11.8,12.3-23.6,24.5-35.3,36.8c0,2.3,0,4.7,0.1,7c12.2-0.1,24.4-0.2,36.5-0.3
	c0,3,0,5.9,0.1,8.9c-12.5,0.4-25,0.8-37.5,1.2c0,3,0,5.9,0.1,8.9c12.1,11.8,24.2,23.6,36.3,35.3c-2.3,2.7-4.6,5.3-7,8
	c-16.5-17.4-33.1-34.7-49.6-52.1c-43.7,0.2-87.5,0.3-131.2,0.5c15.6,21.6,31.2,43.2,46.9,64.8c-22.6,0.2-45.2,0.5-67.8,0.7
	c0,3.3,0,6.6,0.1,9.9c28,24.7,56.1,49.5,84.1,74.2c24.7-0.2,49.4-0.4,74-0.6c0,3.4,0.1,6.9,0.1,10.3c-19.4,0.1-38.9,0.3-58.3,0.4
	c0,2.1,0,4.1,0,6.2c8.3,7.8,16.7,15.6,25,23.4c-2.2,2.2-4.4,4.4-6.6,6.7c-8.6-8.2-17.2-16.4-25.8-24.6c-2.2-0.1-4.4-0.2-6.6-0.4
	c0.3,18.5,0.6,36.9,0.8,55.4c-3.4,0-6.7,0-10.1,0c-0.2-23.4-0.4-46.8-0.5-70.2c-25.9-24-51.9-48-77.8-72c-4.7,0-9.4,0.1-14.1,0.1
	c0.2,21.3,0.3,42.5,0.5,63.8c-21.4-14.5-42.7-29.1-64.1-43.6c0.2,38.5,0.4,77,0.7,115.5c16.5,16.3,32.9,32.6,49.4,48.8
	c-2.3,2.4-4.7,4.9-7,7.3c-12.6-12.9-25.2-25.8-37.7-38.7c-1.6-0.1-3.1-0.1-4.7-0.2c0.2,12.9,0.3,25.8,0.5,38.7
	c-3.2,0.1-6.4,0.2-9.6,0.3c-0.1-13.1-0.2-26.1-0.3-39.2c-2.2-0.1-4.4-0.1-6.6-0.2c-12.9,13.2-25.8,26.3-38.6,39.5
	c-2.5-2.5-5-5.1-7.5-7.6c17.6-16.7,35.1-33.4,52.7-50c-0.2-38.1-0.4-76.2-0.6-114.3c-21.8,15.2-43.6,30.4-65.3,45.6
	c0.1-21.5,0.1-42.9,0.2-64.4c-4.7,0-9.4,0.1-14.1,0.1c-25.6,24.2-51.3,48.5-76.9,72.7c0.2,24,0.4,48.1,0.5,72.1
	c-3.6,0-7.3-0.1-10.9-0.1c-0.1-18.9-0.1-37.8-0.2-56.7c-1.9,0-3.7,0-5.6,0c-8.6,8.6-17.1,17.2-25.7,25.9c-2.5-2.4-5-4.8-7.5-7.2
	c8.7-8.4,17.4-16.8,26.1-25.2c0-1.8,0-3.6,0-5.3c-19.9,0.4-39.8,0.9-59.7,1.3c0.1-3.7,0.2-7.4,0.3-11.1c24.6,0,49.2-0.1,73.8-0.1
	c27.7-25,55.4-50.1,83.1-75.1c0-3.4-0.1-6.7-0.1-10.1c-22.6,0-45.2,0.1-67.8,0.1c15.5-21.9,31.1-43.7,46.6-65.6
	c-43.2,0.5-86.4,1.1-129.7,1.6C41.3,302.3,24.7,320,8.1,337.7c-2.7-2.7-5.3-5.4-8-8.1c12.7-12.3,25.3-24.6,38-36.9
	c0.1-2.8,0.1-5.6,0.2-8.3c-12.5,0.1-25,0.2-37.4,0.3c0-3.2,0-6.4-0.1-9.6c12.5-0.1,25-0.2,37.4-0.3c0-1.9,0-3.7,0-5.6
	C25.4,256.9,12.7,244.6,0,232.3c2.7-2.4,5.4-4.7,8.1-7.1c16.3,16.4,32.6,32.7,48.9,49.1c43.9-0.3,87.9-0.5,131.8-0.8
	c-15.4-21.3-30.7-42.6-46.1-63.8c21.5-0.2,43.1-0.5,64.6-0.7c0.1-2.6,0.1-5.1,0.2-7.7c-27.5-24.5-55-49.1-82.5-73.6
	c-24.7,0.2-49.5,0.4-74.2,0.6c0-3.7-0.1-7.4-0.1-11.1c19-0.1,38.1-0.3,57.1-0.4c0-2.1,0-4.1,0-6.2c-8-7.6-16-15.3-23.9-22.9
	c2.7-2.4,5.4-4.7,8.1-7.1c7.9,7.9,15.8,15.9,23.7,23.8c2.6,0,5.1,0,7.7-0.1c-0.1-18-0.3-35.9-0.4-53.9c3.4,0,6.8,0.1,10.3,0.1
	c0.1,23.3,0.2,46.5,0.3,69.8c26.5,24.5,53,49,79.5,73.4c3.6,0,7.3-0.1,10.9-0.1c-0.1-22.7-0.2-45.4-0.3-68
	c21.9,14.6,43.7,29.2,65.6,43.8c-0.4-37.3-0.7-74.6-1.1-111.9C270.3,40.8,252.4,24.4,234.5,8c2.8-2.5,5.7-5,8.5-7.6
	c13.2,13.4,26.3,26.8,39.5,40.1c1.9,0,3.7,0,5.6,0C287.9,27.1,287.8,13.6,287.6,0.2z"/>
<path class="st1" d="M232.7,141.8c18.9,12.2,37.9,24.4,56.8,36.6c0.1,20.3,0.1,40.6,0.2,60.8c-2.3,0.2-11.8,1.2-18.9,9l-38.1-34.7
	V141.8z"/>
<path class="st1" d="M356.8,141.8c-18.9,12.2-37.7,24.5-56.6,36.7c-0.1,20.1-0.2,40.3-0.3,60.4c3.1,0.5,11.7,2.1,19.3,9.3l37.6-37.6
	V141.8z"/>
<path class="st1" d="M365.1,214.8h65.5l-36.9,57.6c-20.4,0-40.7,0-61.1,0c-0.2-2.5-1.2-11.1-8.3-18L365.1,214.8z"/>
<path class="st1" d="M332.6,282.7c0.1,2.3-0.1,6.5-2.2,11.2c-1.8,4.2-4.4,7.1-6,8.6c12.8,12.4,25.5,24.9,38.3,37.3H432
	c-13.9-19.1-27.7-38.2-41.6-57.4C371.2,282.6,351.9,282.7,332.6,282.7z"/>
<path class="st1" d="M299.8,377.5c19,12.3,38,24.6,57,36.9c-0.1-13.7-0.1-27.5-0.1-41.4c0-9.1,0-18.1,0.1-27.2
	c-13.1-12.5-26.2-25.1-39.4-37.6c-6.5,8.3-17,7.5-17.7,7.5C299.8,336.4,299.8,356.9,299.8,377.5z"/>
<path class="st1" d="M257.5,282.6c0.1,2.4,0.7,10.9,7.4,18.1l-40.1,39.2h-67.3l42-57.4L257.5,282.6z"/>
<path class="st1" d="M289.7,315.6c0,20.7,0,41.5,0,62.2l-57,36.6v-69.5c13-12.7,25.9-25.4,38.9-38.1c1.4,1.7,4.3,4.7,9,6.8
	C284.3,315.2,287.7,315.6,289.7,315.6z"/>
<path class="st1" d="M264.7,253.6c-2.8,3.4-7.2,10-7.7,18.8l-58.5,0l-40.8-57.6h65.8L264.7,253.6z"/>
<g>
	<path class="st2" d="M227.4,601.5l11.2,24.9l14.6-37.1c1.5-3.5,2.2-5.9,2.2-7.4c-0.1-1.4-0.9-2.3-2.6-2.7l-4-0.8V576
		c0.7,0.2,3.2,0.3,7.5,0.3c2.2,0,4.2,0,6,0c1.7,0,2.9-0.1,3.4-0.2v2.5l-3,0.9c-1,0.3-1.7,0.8-2.3,1.4c-0.5,0.6-1.1,1.6-1.6,3
		L237.4,640h-4l-11.7-26.5L208.8,640h-3.1l-22.3-54.6c-0.6-1.4-1.1-2.5-1.5-3.3c-0.4-0.8-0.8-1.4-1.2-1.8c-0.4-0.4-0.8-0.7-1.1-0.9
		c-0.4-0.2-0.7-0.3-1.1-0.4l-1.6-0.6V576c1.6,0.2,4.7,0.3,9.2,0.3c4.5,0,8-0.1,10.3-0.3v2.5l-2,0.5c-0.5,0.1-0.8,0.4-0.8,0.9
		c0,0.5,0.2,1.1,0.5,1.9c0.4,0.8,0.9,2.1,1.6,3.9l16.4,41.2l7.9-16.1l-10.2-23.1c-1.3-3-2.4-5.1-3.4-6.4c-0.9-1.3-1.8-2-2.7-2.2
		l-2.7-0.7V576c1.8,0.2,5.7,0.3,11.5,0.3c5.8,0,9.4-0.1,10.9-0.3v2.5l-2.8,0.6c-1.2,0.2-1.9,0.7-2.1,1.6c-0.1,0.3,0,0.9,0.2,1.6
		c0.2,0.8,0.7,2,1.4,3.7l5.5,12.9l7-15.1c0.5-1,0.6-2.1,0.2-3.1c-0.4-1-1-1.5-2-1.7l-3.3-0.6V576c1.6,0.2,4.7,0.3,9.3,0.3
		c4.5,0,7.4-0.1,8.7-0.3v2.5l-4.6,0.9c-2.2,0.5-3.9,2-5.1,4.5L227.4,601.5z"/>
	<path class="st2" d="M340,612.1l-4.5,0.7c-1.1,0.2-1.9,0.5-2.3,0.8c-0.4,0.4-0.6,1-0.6,1.9v10.9c0,1.8,0,3.3-0.1,4.3
		c-0.1,1.1-0.3,1.9-0.7,2.5c-0.4,0.6-0.9,1.1-1.7,1.5c-0.8,0.4-1.9,0.8-3.3,1.3c-1.3,0.5-2.8,1-4.5,1.4c-1.7,0.4-3.5,0.7-5.4,1
		c-1.9,0.3-3.9,0.5-5.9,0.6c-2,0.2-3.9,0.2-5.8,0.2c-4.9,0-9.5-0.7-13.9-2c-4.4-1.3-8.2-3.3-11.5-6c-3.3-2.6-5.9-5.9-7.8-9.7
		c-1.9-3.8-2.9-8.3-2.9-13.3c0-5.8,1.1-10.8,3.2-14.9c2.1-4.2,5-7.6,8.5-10.3c3.5-2.7,7.7-4.7,12.3-6c4.7-1.3,9.6-1.9,14.7-1.9
		c8.7,0,16,1.6,21.9,4.7l0.8,16.6l-2.4,0.3c-1-2.4-2.1-4.7-3.4-6.8c-1.3-2.1-2.7-4-4.4-5.6c-1.6-1.6-3.5-2.9-5.6-3.8
		c-2.1-0.9-4.5-1.4-7.2-1.4c-4.1,0-7.7,0.7-10.8,2.1c-3.1,1.4-5.6,3.3-7.5,5.8c-2,2.5-3.4,5.4-4.4,8.9c-1,3.4-1.5,7.2-1.5,11.4
		c0,3.9,0.5,7.5,1.6,11c1.1,3.4,2.6,6.5,4.7,9.1c2.1,2.6,4.6,4.6,7.7,6.2c3.1,1.5,6.6,2.3,10.6,2.3c2.4,0,4.4-0.3,6.1-0.8
		c1.6-0.5,2.9-1.2,3.8-2.2c1-0.9,1.6-2,2-3.2c0.4-1.2,0.5-2.4,0.5-3.7v-10.3c0-1.1-0.2-1.7-0.7-2.1c-0.5-0.3-1.3-0.6-2.3-0.7
		l-7.1-0.7v-3.1c5.1,0.3,10.1,0.4,15,0.4c4.9,0,9.9-0.1,15-0.4V612.1z"/>
	<path class="st2" d="M374.6,638.2c-2.3-0.1-4.8-0.2-7.6-0.3c-2.8-0.1-5.5-0.1-8.2-0.1c-2.7,0-5.4,0-8.1,0.1
		c-2.7,0.1-4.8,0.2-6.3,0.3v-3.5l6-0.7c1.1-0.1,1.9-0.4,2.2-0.9c0.4-0.5,0.5-1.4,0.5-2.6V584c0-1.4-0.1-2.5-0.4-3.2
		c-0.3-0.7-1-1.1-2-1.2l-5.5-0.7v-2.8c1.5,0.1,5.6,0.1,12.4,0.1c6.8,0,15.6,0,26.6,0c3,0,5.5,0,7.6,0c2.1,0,3.9-0.1,5.3-0.1
		c0,0.4,0,1,0,1.7c0,0.7-0.1,1.5-0.1,2.4c0,0.9,0,1.7,0,2.6c0,0.9,0,1.7,0,2.5c0,1.5,0,2.9,0,4c0,1.2,0,2.2,0.1,3.1h-2.3
		c-0.8-2.5-1.5-4.5-2-6c-0.6-1.5-1.1-2.6-1.7-3.4c-0.6-0.8-1.2-1.3-1.9-1.5c-0.7-0.2-1.6-0.3-2.6-0.3h-17.9c-1.1,0-1.9,0.3-2.3,0.9
		c-0.4,0.6-0.6,1.7-0.6,3.2v18.9h17.3c1.2,0,2-0.2,2.4-0.5c0.4-0.4,0.8-1.2,1-2.4l1.6-6h2.5c-0.1,1.2-0.1,2.7-0.1,4.3
		c0,1.6,0,3.5,0,5.6c0,4.1,0.1,8.1,0.3,11.9h-2.3l-2.1-6.2c-0.2-0.7-0.4-1.2-0.6-1.6c-0.2-0.4-0.5-0.7-0.9-0.8
		c-0.4-0.2-0.9-0.3-1.5-0.3c-0.6,0-1.4,0-2.4,0h-15.1v22.5c0,0.9,0.1,1.6,0.2,2c0.1,0.4,0.3,0.8,0.6,1c0.3,0.2,0.7,0.4,1.1,0.4
		c0.5,0.1,1.1,0.1,1.8,0.2l5,0.7V638.2z"/>
	<path class="st2" d="M410.8,631.5v-49c0-1.1-0.2-1.9-0.5-2.4c-0.4-0.5-1-0.7-1.9-0.8l-6.2-0.9V576c0.7,0.2,7.6,0.3,20.7,0.3
		c3.9,0,7-0.1,9.3-0.3v2.7l-6.2,0.9c-0.9,0.1-1.6,0.3-1.9,0.7c-0.4,0.4-0.5,1.2-0.5,2.4v49c0,1.2,0.2,1.9,0.5,2.3
		c0.3,0.3,1,0.5,2,0.6l6.2,0.5v3.4c-1.3-0.1-3.2-0.2-5.7-0.3c-2.5-0.1-5.6-0.1-9.3-0.1s-6.8,0-9.3,0.1c-2.5,0.1-4.4,0.2-5.7,0.3
		v-3.4l6.2-0.5c1-0.1,1.6-0.4,2-0.7C410.6,633.4,410.8,632.7,410.8,631.5z"/>
</g>
<circle class="st0" cx="296.1" cy="277.8" r="39.2"/>
</svg>
