<?xml version="1.0" encoding="utf-8"?>
<!-- Designed by Vexels.com - 2016 All Rights Reserved - https://vexels.com/terms-and-conditions/  -->

<svg version="1.1" id="Capa_1" xmlns="http://www.w3.org/2000/svg" xmlns:xlink="http://www.w3.org/1999/xlink" x="0px" y="0px"
	 width="1200px" height="1200px" viewBox="0 0 1200 1200" enable-background="new 0 0 1200 1200" xml:space="preserve">
<g>
	<path fill="#441104" d="M1147.063,439.713c-7.239-7.217-12.253,2.213-12.253,2.213s-132.044,8.164-149.329,9.115
		c-17.302,0.946-40.247,7.848-51.885,11.939c-11.618,4.091-26.094,5.328-38.353,7.23c-8.935,1.379-20.369,6.588-25.914,9.311
		c-0.471-0.988-0.915-2.022-1.376-3.041c-4.146-9.476-19.521-17.767-19.521-17.767c-14.199-9.458-29.567,0.599-36.662,1.806
		c-7.081,1.169-13.596,1.169-19.515-2.978c-5.908-4.124-11.225-5.909-23.062-10.054c-11.821-4.143-28.962-21.873-41.385-27.185
		c-12.411-5.328-40.795-18.342-56.177-23.655c-15.374-5.334-31.342-2.975-44.336-2.975c-13.021,0-23.064-8.866-37.848-14.179
		c-14.79-5.317-34.295-11.818-56.175-17.746c-21.882-5.913-47.899-11.223-62.097-13.587c-14.183-2.374-27.187,2.365-27.187,2.365
		s2.946-26.619-20.698-55.585c-23.643-28.991-60.9-24.846-60.9-24.846c-87.519,18.342-53.221,112.356-53.221,112.356
		c-36.657,13.007-53.809,49.667-65.639,69.181c-11.817,19.515-13.6,69.186-16.555,88.678c-2.958,19.532-12.423,53.818-15.381,75.71
		c-2.944,21.87-8.86,53.798-8.86,53.798c-16.556,9.479-11.238,32.518-11.238,32.518c-2.365,52.036,67.414,95.796,67.414,95.796
		s1.179,5.315,3.538,6.501c2.372,1.173,3.553,2.365,2.372,10.636c-1.179,8.3-5.326,13.6-5.326,27.222c0,1.701,0.2,3.276,0.554,4.739
		l-40.402,11.869c0,0-6.29,1.885-14.468-1.888c-8.167-3.77-51.861-17.934-64.759-16.657c-12.887,1.25-27.971,10.374-33.015,15.4
		c-5.026,5.026-17.911,26.406-22.618,34.573c-4.719,8.188-10.699,16.661-14.155,19.492c-3.457,2.823-8.168,6.608-8.168,6.608
		s-6.293-5.67-9.125-2.2c-2.832,3.457-5.973,12.574,0.312,14.769c6.28,2.188,8.184,0.322,11.641-4.4c0,0,3.141-1.879,9.121-7.861
		c5.967-5.977,11.934-14.772,19.485-25.778c7.541-10.986,19.801-41.182,45.894-40.551c0,0,16.029,0.954,26.103,4.701
		c10.063,3.789,23.885,9.121,30.805,11.021c6.91,1.869,15.715,4.401,27.671,1.869c8.822-1.853,30.026-8.68,40.484-12.127
		c4.277,4.91,10.309,8.557,14.757,13.01c7.684,7.69,18.322,0.596,29.559-0.596c11.239-1.17,5.906-5.316,14.188-4.714
		c8.278,0.59,15.378-6.512,15.378-6.512c13.017-0.59,5.323-10.049,6.501-17.742c1.183-7.675-5.323-26.017-10.063-35.475
		c-4.723-9.458-13-11.819-15.963-13.604c-2.958-1.766-2.359-4.129-3.54-7.69c-1.18-3.532-5.917-6.487-9.456-10.632
		c-3.558-4.141-5.326-2.958-11.245-6.502c-5.898-3.547-7.689-13.605-7.689-13.605c-4.124-8.268,15.971-7.095,15.971-7.095
		l-14.18-23.642c-7.099-5.333-15.975,7.674-15.975,7.674s-3.546-10.036-10.648-22.466c-7.088-12.43-2.954-17.729,1.785-26.014
		c4.722-8.271,24.24-66.214,24.24-66.214s8.281,14.182,15.963,18.899c7.692,4.736,20.102,35.479,20.102,35.479
		s2.358,21.888,5.914,42.59c3.543,20.676,34.3,47.297,71.557,59.127c31.94,10.138,47.352-1.899,51.09-5.521
		c1.595,0.903,4.711,2.428,10.394,4.927c18.926,8.267,38.441,31.923,43.761,33.69c5.319,1.785,15.957,5.332,15.957,5.332
		s4.142,2.365,11.24,7.102c7.098,4.72,21.883,4.127,21.883,4.127c-3.558,7.69,8.866,7.098,8.866,11.222
		c0,4.159,8.278,4.159,8.278,4.159c1.18,1.769,5.917,1.173,5.917,1.173c0,3.551,12.997,3.551,12.997,3.551l8.875,4.735
		c0,0-4.73,11.248-14.196,21.877c-9.457,10.648,2.968,13.6,7.102,13.007c4.142-0.593,96.972-2.358,96.972-2.358
		c23.063,1.166,111.167,17.134,121.229,23.059c10.045,5.905,13-0.59,13-0.59l25.42-41.391c4.146-10.05-5.31-4.141-5.31-4.141
		c-15.374,1.785-112.349-7.101-112.349-7.101l-8.883-5.909l-6.495,1.188c0,0,0,0-12.421-10.055
		c-12.407-10.068-13.605-6.505-13.605-6.505c-2.361-11.831-19.505-15.978-32.521-21.887c-13-5.912-29.558-20.688-41.976-25.427
		c-12.418-4.732-31.344-17.148-43.163-23.651c-11.837-6.505-29.576-23.658-29.576-23.658c9.462,7.101,75.095,9.46,75.095,9.46
		c9.477,3.569,34.9,12.433,40.803,11.239c5.915-1.186,7.684,4.147,11.237,4.727c3.541,0.591,13.606,4.157,18.326,6.513
		c4.739,2.366,14.195-2.951,28.391,1.771c14.199,4.736,44.343,17.727,60.903,28.973c16.551,11.24,27.791,7.688,38.43,10.641
		c10.643,2.959,30.75,11.247,49.079,17.142c18.325,5.927,13.013,0.591,26.615,7.097c13.59,6.521,29.558,15.387,37.248,20.123
		c7.685,4.717,4.729,0.58,13.007,1.763c8.283,1.173,10.639,0.599,24.254,7.693c13.587,7.104,30.156,7.675,30.156,7.675
		c3.544,9.463,24.831,2.958,24.831,2.958l43.16,7.101c9.456-12.41,20.7-51.44,20.7-51.44c-10.651-13.007-33.12,8.863-33.12,8.863
		c-1.77-5.313-18.323-7.678-18.323-7.678c-2.364-11.237-27.795-26.605-27.795-26.605c-3.554-9.479-19.521-4.146-19.521-4.146
		c2.971-4.739-15.961-5.925-20.684-5.925c-4.736,0-11.241-3.535-17.144-9.457c-5.915-5.912-13.609-5.318-20.114-7.681
		c-6.505-2.358-7.098-4.718-15.375-9.454c-8.28-4.739-10.635-5.925-20.688-13.027c-10.059-7.079-25.437-15.369-37.254-16.538
		c-11.844-1.192-25.424-3.548-61.502-24.251c-36.063-20.681-46.114-13.007-58.538-13.587c-12.42-0.591-11.821-5.327-26.013-5.922
		c-14.192-0.583-23.065-6.511-39.026-22.469c-15.965-15.964-38.438-34.287-64.458-46.717
		c-26.005-12.412-65.039-31.927-79.226-40.793c-14.196-8.877-37.855-25.42-44.938-33.704c-7.094-8.274-8.277-23.662-10.063-37.854
		c-1.771-14.181,0.589-23.636,2.969-35.456c2.354-11.82,18.321-34.905,22.458-37.859c4.142-2.955,21.292,1.191,21.292,1.191
		c7.1,2.955,98.74,14.775,96.383,14.775c-2.361,0,40.797,11.835,48.48,13.6c7.694,1.769,29.577,11.841,38.443,15.371
		c8.873,3.55,34.29,8.88,39.029,11.817c4.727,2.972,9.453,10.669,9.453,10.669s-0.586-2.975,5.915-4.147
		c6.515-1.187,21.88,12.413,36.072,18.919c14.189,6.504,43.766,23.658,57.349,21.873c13.603-1.761,7.102-11.229,7.102-11.229
		c17.732-1.186,14.195-15.961,14.195-15.961s0-2.362,2.355-10.053c1.233-3.992,0.538-7.981-0.97-12.211
		c16.318-11.889,43.536-11.375,49.433-11.972c6.292-0.629,22.637-5.655,33.961-10.371c11.31-4.727,29.854-5.659,29.854-5.659
		l149.336-9.43c0,0,1.578,2.19,5.973,1.564C1146.435,452.608,1154.296,446.946,1147.063,439.713z"/>
</g>
</svg>
