<?xml version="1.0" encoding="utf-8"?>
<!-- Generator: Adobe Illustrator 22.0.1, SVG Export Plug-In . SVG Version: 6.00 Build 0)  -->
<svg version="1.1" id="Layer_1" xmlns="http://www.w3.org/2000/svg" xmlns:xlink="http://www.w3.org/1999/xlink" x="0px" y="0px"
	 viewBox="0 0 479.7 286.7" style="enable-background:new 0 0 479.7 286.7;" xml:space="preserve">
<style type="text/css">
	.st0{fill:#3F547B;}
	.st1{fill:#426392;}
	.st2{fill:#3B2E4C;}
</style>
<g>
	<polygon class="st0" points="297.5,146.9 234.1,158.7 178.7,84.5 217,35.2 	"/>
	<path class="st1" d="M234.3,158.6l-20.7,4l-62.3,34.8l2.6,4.6l57.9-26.7l53.2-0.9l-114.6,38.4L26.9,278.6L0,285L168,69
		C168,69,234.3,158.6,234.3,158.6z"/>
	<path class="st2" d="M313.8,169.1c5.4-8.7,10.8-17.4,17-27.3c-11.9,1.8-33.3,5.1-33.3,5.1l-68.9-94.1L270.6,0l145.8,199.1
		l-24.7,9.1l-42.3,8.7 M346.8,179.7c10.4,0,18.9-8.5,18.8-18.7c-0.1-10.5-8.4-18.8-18.7-18.8c-10.4,0-18.7,8.3-18.7,18.7
		C328.1,171.4,336.4,179.7,346.8,179.7z"/>
	<polygon class="st1" points="284.5,228.9 63.4,269.5 159.5,223.6 262.3,196.6 	"/>
	<polygon class="st1" points="326.1,286.1 13.5,286.7 289.2,233.8 	"/>
	<polygon class="st2" points="354,221.6 399,212.5 417.3,200.4 479.7,286 400.5,286.1 	"/>
	<polygon class="st0" points="354.1,221.6 400.5,286.1 326,286.1 288.2,234 	"/>
	<polygon class="st0" points="245.6,174.7 249.1,179.7 265,174.4 	"/>
	<polygon class="st0" points="284.5,228.9 261.3,196.9 302.6,185.9 313.8,169.1 349.5,216.9 	"/>
</g>
</svg>
